<svg width="740" height="320" viewBox="0 0 740 320" fill="none" xmlns="http://www.w3.org/2000/svg">
<g opacity="0.4" filter="url(#filter0_f_5229_48201)">
<path d="M61.4099 232.436C60.765 225.84 65.5893 219.97 72.1852 219.325L230.579 203.839C237.175 203.194 243.044 208.018 243.689 214.614L247.309 251.64C247.954 258.236 243.13 264.106 236.534 264.751L78.1407 280.237C71.5448 280.882 65.6749 276.058 65.03 269.462L61.4099 232.436Z" fill="white"/>
<rect x="73.353" y="231.269" width="37.2024" height="37.2024" rx="18.6012" transform="rotate(-5.58416 73.353 231.269)" fill="url(#paint0_linear_5229_48201)"/>
<rect x="73.353" y="231.269" width="37.2024" height="37.2024" rx="18.6012" transform="rotate(-5.58416 73.353 231.269)" fill="url(#paint1_radial_5229_48201)" fill-opacity="0.2"/>
<path d="M75.56 249.743C74.5604 239.518 82.0385 230.419 92.2629 229.42V229.42C102.487 228.42 111.586 235.898 112.586 246.123V246.123C113.586 256.347 106.107 265.446 95.883 266.446V266.446C85.6586 267.445 76.5597 259.967 75.56 249.743V249.743Z" fill="url(#paint2_linear_5229_48201)"/>
<path d="M75.56 249.743C74.5604 239.518 82.0385 230.419 92.2629 229.42V229.42C102.487 228.42 111.586 235.898 112.586 246.123V246.123C113.586 256.347 106.107 265.446 95.883 266.446V266.446C85.6586 267.445 76.5597 259.967 75.56 249.743V249.743Z" fill="url(#paint3_radial_5229_48201)" fill-opacity="0.2"/>
<path d="M101.183 253.092L100.847 253.5C99.8101 254.762 95.5984 255.571 90.9411 251.743C86.2837 247.915 86.2545 243.635 87.2984 242.365L87.6402 241.949C88.1836 241.288 89.1959 241.289 89.7377 241.952L91.5245 244.137C91.9338 244.638 91.9329 245.357 91.5224 245.857L90.7926 246.745C90.6062 246.972 90.5668 247.283 90.727 247.529C91.0191 247.978 91.6121 248.748 92.6809 249.626C93.7498 250.505 94.6199 250.937 95.1164 251.137C95.3888 251.246 95.687 251.147 95.8734 250.921L96.6031 250.033C97.0136 249.533 97.7196 249.393 98.2899 249.697L100.771 251.023C101.531 251.428 101.729 252.427 101.183 253.092Z" fill="#1370F3"/>
<path d="M119.372 237.421C119.104 234.673 121.114 232.227 123.862 231.958L204.478 224.076C207.226 223.807 209.672 225.818 209.94 228.566V228.566C210.209 231.314 208.199 233.76 205.451 234.029L124.835 241.911C122.087 242.179 119.641 240.169 119.372 237.421V237.421Z" fill="#EFF1F2"/>
<path d="M120.929 253.345C120.66 250.597 122.671 248.151 125.419 247.882L228.872 237.767C231.62 237.499 234.066 239.509 234.335 242.257V242.257C234.603 245.005 232.593 247.451 229.845 247.72L126.392 257.835C123.644 258.103 121.198 256.093 120.929 253.345V253.345Z" fill="url(#paint4_linear_5229_48201)"/>
</g>
<g filter="url(#filter1_dd_5229_48201)">
<foreignObject x="218" y="59" width="304" height="18"><div xmlns="http://www.w3.org/1999/xhtml" style="backdrop-filter:blur(1px);clip-path:url(#bgblur_0_5229_48201_clip_path);height:100%;width:100%"></div></foreignObject><g opacity="0.5" data-figma-bg-blur-radius="2">
<path d="M220 66.3976C220 63.4166 222.417 61 225.398 61H514.602C517.583 61 520 63.4166 520 66.3976V75H220V66.3976Z" fill="white"/>
</g>
<rect width="300" height="26.001" transform="translate(220 75)" fill="#F9FBFD"/>
<path d="M270.541 85.001C272.198 85.0011 273.541 86.3442 273.541 88.001C273.541 89.6577 272.198 91.0008 270.541 91.001H239C237.343 91.0009 236 89.6577 236 88.001C236 86.3441 237.343 85.001 239 85.001H270.541ZM338.495 85C340.152 85 341.495 86.3441 341.495 88.001C341.495 89.6577 340.152 91.001 338.495 91.001H283.219C281.562 91.0009 280.219 89.6576 280.219 88.001C280.219 86.3441 281.562 85.0001 283.219 85H338.495ZM366.809 85C368.465 85.0001 369.809 86.3441 369.809 88.001C369.808 89.6576 368.465 91.0009 366.809 91.001H351.247C349.59 91.001 348.247 89.6577 348.247 88.001C348.247 86.3441 349.59 85 351.247 85H366.809ZM395.066 85C396.723 85 398.066 86.3441 398.066 88.001C398.066 89.6577 396.723 91.001 395.066 91.001H379.505C377.848 91.0009 376.505 89.6576 376.505 88.001C376.505 86.3441 377.848 85.0001 379.505 85H395.066ZM423.325 85C424.982 85.0002 426.325 86.3442 426.325 88.001C426.325 89.6576 424.982 91.0008 423.325 91.001H407.764C406.107 91.001 404.764 89.6577 404.764 88.001C404.764 86.3441 406.107 85 407.764 85H423.325ZM500.999 85C502.656 85 504 86.3441 504 88.001C504 89.6577 502.656 91.001 500.999 91.001H436.021C434.364 91.001 433.021 89.6577 433.021 88.001C433.021 86.3441 434.364 85 436.021 85H500.999Z" fill="url(#paint5_linear_5229_48201)"/>
<rect width="300" height="26" transform="translate(220 101.001)" fill="white"/>
<path d="M270.541 111.001C272.198 111.001 273.541 112.344 273.541 114.001C273.541 115.658 272.198 117.001 270.541 117.001H239C237.343 117.001 236 115.658 236 114.001C236 112.344 237.343 111.001 239 111.001H270.541ZM338.496 111.001C340.153 111.001 341.496 112.344 341.496 114.001C341.496 115.658 340.153 117.001 338.496 117.001H283.22C281.563 117.001 280.22 115.658 280.22 114.001C280.22 112.344 281.563 111.001 283.22 111.001H338.496ZM366.809 111.001C368.465 111.001 369.809 112.344 369.809 114.001C369.808 115.658 368.465 117.001 366.809 117.001H351.247C349.59 117.001 348.247 115.658 348.247 114.001C348.247 112.344 349.59 111.001 351.247 111.001H366.809ZM395.069 111.001C396.726 111.001 398.069 112.344 398.069 114.001C398.069 115.658 396.726 117.001 395.069 117.001H379.508C377.851 117.001 376.507 115.658 376.507 114.001C376.507 112.344 377.851 111.001 379.508 111.001H395.069ZM423.327 111.001C424.984 111.001 426.327 112.344 426.327 114.001C426.327 115.658 424.984 117.001 423.327 117.001H407.765C406.108 117.001 404.765 115.658 404.765 114.001C404.765 112.344 406.108 111.001 407.765 111.001H423.327ZM501 111.001C502.657 111.001 504 112.344 504 114.001C504 115.658 502.657 117.001 501 117.001H436.021C434.364 117.001 433.021 115.658 433.021 114.001C433.021 112.344 434.364 111.001 436.021 111.001H501Z" fill="url(#paint6_linear_5229_48201)"/>
<rect width="300" height="26" transform="translate(220 127.001)" fill="#F9FBFD"/>
<path d="M270.541 137.001C272.198 137.001 273.541 138.344 273.541 140.001C273.541 141.658 272.198 143.001 270.541 143.001H239C237.343 143.001 236 141.658 236 140.001C236 138.344 237.343 137.001 239 137.001H270.541ZM338.494 137.001C340.151 137.001 341.494 138.344 341.494 140.001C341.494 141.658 340.151 143.001 338.494 143.001H283.218C281.561 143.001 280.218 141.658 280.218 140.001C280.218 138.344 281.561 137.001 283.218 137.001H338.494ZM366.81 137.001C368.466 137.001 369.81 138.344 369.81 140.001C369.809 141.658 368.466 143.001 366.81 143.001H351.248C349.591 143.001 348.248 141.658 348.248 140.001C348.248 138.344 349.591 137.001 351.248 137.001H366.81ZM395.068 137.001C396.725 137.001 398.068 138.344 398.068 140.001C398.068 141.658 396.725 143.001 395.068 143.001H379.507C377.85 143.001 376.506 141.658 376.506 140.001C376.506 138.344 377.85 137.001 379.507 137.001H395.068ZM423.326 137.001C424.983 137.001 426.326 138.344 426.326 140.001C426.326 141.658 424.983 143.001 423.326 143.001H407.765C406.108 143.001 404.765 141.658 404.765 140.001C404.765 138.344 406.108 137.001 407.765 137.001H423.326ZM501 137.001C502.657 137.001 504 138.344 504 140.001C504 141.658 502.657 143.001 501 143.001H436.021C434.364 143.001 433.021 141.658 433.021 140.001C433.021 138.344 434.364 137.001 436.021 137.001H501Z" fill="url(#paint7_linear_5229_48201)"/>
<rect width="300" height="26" transform="translate(220 153.001)" fill="white"/>
<path d="M270.541 163.001C272.198 163.001 273.541 164.344 273.541 166.001C273.541 167.658 272.198 169.001 270.541 169.001H239C237.343 169.001 236 167.658 236 166.001C236 164.344 237.343 163.001 239 163.001H270.541ZM338.496 163.001C340.153 163.001 341.496 164.344 341.496 166.001C341.496 167.658 340.153 169.001 338.496 169.001H283.22C281.563 169.001 280.22 167.658 280.22 166.001C280.22 164.344 281.563 163.001 283.22 163.001H338.496ZM366.809 163.001C368.465 163.001 369.809 164.344 369.809 166.001C369.808 167.658 368.465 169.001 366.809 169.001H351.247C349.59 169.001 348.247 167.658 348.247 166.001C348.247 164.344 349.59 163.001 351.247 163.001H366.809ZM395.069 163.001C396.726 163.001 398.069 164.344 398.069 166.001C398.069 167.658 396.726 169.001 395.069 169.001H379.508C377.851 169.001 376.507 167.658 376.507 166.001C376.507 164.344 377.851 163.001 379.508 163.001H395.069ZM423.327 163.001C424.984 163.001 426.327 164.344 426.327 166.001C426.327 167.658 424.984 169.001 423.327 169.001H407.765C406.108 169.001 404.765 167.658 404.765 166.001C404.765 164.344 406.108 163.001 407.765 163.001H423.327ZM501 163.001C502.657 163.001 504 164.344 504 166.001C504 167.658 502.657 169.001 501 169.001H436.021C434.364 169.001 433.021 167.658 433.021 166.001C433.021 164.344 434.364 163.001 436.021 163.001H501Z" fill="url(#paint8_linear_5229_48201)"/>
<rect width="300" height="26" transform="translate(220 179.001)" fill="#F9FBFD"/>
<path d="M270.541 189.001C272.198 189.001 273.541 190.344 273.541 192.001C273.541 193.658 272.198 195.001 270.541 195.001H239C237.343 195.001 236 193.658 236 192.001C236 190.344 237.343 189.001 239 189.001H270.541ZM338.494 189.001C340.151 189.001 341.494 190.344 341.494 192.001C341.494 193.658 340.151 195.001 338.494 195.001H283.218C281.561 195.001 280.218 193.658 280.218 192.001C280.218 190.344 281.561 189.001 283.218 189.001H338.494ZM366.81 189.001C368.466 189.001 369.81 190.344 369.81 192.001C369.809 193.658 368.466 195.001 366.81 195.001H351.248C349.591 195.001 348.248 193.658 348.248 192.001C348.248 190.344 349.591 189.001 351.248 189.001H366.81ZM395.068 189.001C396.725 189.001 398.068 190.344 398.068 192.001C398.068 193.658 396.725 195.001 395.068 195.001H379.507C377.85 195.001 376.506 193.658 376.506 192.001C376.506 190.344 377.85 189.001 379.507 189.001H395.068ZM423.326 189.001C424.983 189.001 426.326 190.344 426.326 192.001C426.326 193.658 424.983 195.001 423.326 195.001H407.765C406.108 195.001 404.765 193.658 404.765 192.001C404.765 190.344 406.108 189.001 407.765 189.001H423.326ZM501 189.001C502.657 189.001 504 190.344 504 192.001C504 193.658 502.657 195.001 501 195.001H436.021C434.364 195.001 433.021 193.658 433.021 192.001C433.021 190.344 434.364 189.001 436.021 189.001H501Z" fill="url(#paint9_linear_5229_48201)"/>
<rect width="300" height="26" transform="translate(220 205.001)" fill="url(#paint10_linear_5229_48201)"/>
<circle cx="228.247" cy="68.2229" r="2.5" fill="#CB3030"/>
<circle cx="236.247" cy="68.2229" r="2.5" fill="#D9AA00"/>
<circle cx="244.247" cy="68.2229" r="2.5" fill="#81ECA9"/>
</g>
<g filter="url(#filter3_dd_5229_48201)">
<path d="M384 210C384 203.373 389.373 198 396 198H612C618.627 198 624 203.373 624 210V247.202C624 253.83 618.627 259.202 612 259.202H396C389.373 259.202 384 253.83 384 247.202V210Z" fill="white" shape-rendering="crispEdges"/>
<rect x="396" y="210" width="37.2024" height="37.2024" rx="18.6012" fill="url(#paint11_linear_5229_48201)"/>
<rect x="396" y="210" width="37.2024" height="37.2024" rx="18.6012" fill="url(#paint12_radial_5229_48201)" fill-opacity="0.2"/>
<path d="M396.399 228.601C396.399 218.328 404.727 210 415 210V210C425.273 210 433.601 218.328 433.601 228.601V228.601C433.601 238.874 425.273 247.202 415 247.202V247.202C404.727 247.202 396.399 238.874 396.399 228.601V228.601Z" fill="url(#paint13_linear_5229_48201)"/>
<path d="M396.399 228.601C396.399 218.328 404.727 210 415 210V210C425.273 210 433.601 218.328 433.601 228.601V228.601C433.601 238.874 425.273 247.202 415 247.202V247.202C404.727 247.202 396.399 238.874 396.399 228.601V228.601Z" fill="url(#paint14_radial_5229_48201)" fill-opacity="0.2"/>
<path d="M415.775 222.401C417.059 222.401 418.101 223.442 418.101 224.726V233.251C418.101 234.107 417.407 234.801 416.551 234.801H415.001C414.573 234.801 414.226 234.455 414.226 234.027V232.476C414.225 232.048 413.878 231.702 413.45 231.701H411.9C411.473 231.701 411.125 232.048 411.125 232.476V234.027C411.125 234.454 410.778 234.801 410.351 234.801H408.8C407.944 234.801 407.25 234.107 407.25 233.251V224.726C407.25 223.442 408.291 222.401 409.575 222.401H415.775ZM420.426 226.276C421.71 226.276 422.751 227.317 422.751 228.601V233.251C422.751 234.107 422.056 234.801 421.2 234.801H420.426C419.998 234.801 419.65 234.455 419.65 234.027V227.051C419.65 226.623 419.998 226.276 420.426 226.276ZM410.544 228.213C410.009 228.213 409.575 228.647 409.575 229.182C409.575 229.717 410.009 230.152 410.544 230.152C411.079 230.151 411.513 229.717 411.513 229.182C411.512 228.647 411.079 228.213 410.544 228.213ZM414.807 228.213C414.272 228.213 413.838 228.647 413.838 229.182C413.838 229.717 414.272 230.152 414.807 230.152C415.341 230.151 415.775 229.717 415.775 229.182C415.775 228.647 415.341 228.213 414.807 228.213ZM410.544 224.726C410.009 224.726 409.575 225.16 409.575 225.695C409.575 226.23 410.009 226.663 410.544 226.663C411.079 226.663 411.513 226.229 411.513 225.695C411.513 225.16 411.079 224.726 410.544 224.726ZM414.807 224.726C414.272 224.726 413.838 225.16 413.838 225.695C413.838 226.23 414.272 226.663 414.807 226.663C415.341 226.663 415.775 226.229 415.775 225.695C415.775 225.16 415.341 224.726 414.807 224.726Z" fill="#1370F3"/>
<path d="M445.803 225.758C445.015 225.758 444.329 225.635 443.745 225.389C443.167 225.143 442.713 224.785 442.385 224.316C442.057 223.847 441.879 223.277 441.852 222.607H443.65C443.682 222.963 443.793 223.259 443.985 223.496C444.176 223.733 444.429 223.91 444.743 224.029C445.058 224.143 445.406 224.2 445.789 224.2C446.19 224.2 446.544 224.138 446.849 224.015C447.159 223.892 447.4 223.721 447.573 223.503C447.747 223.279 447.833 223.022 447.833 222.73C447.833 222.466 447.756 222.247 447.601 222.074C447.45 221.901 447.236 221.755 446.958 221.636C446.685 221.513 446.364 221.406 445.994 221.315L444.839 221.014C443.987 220.796 443.322 220.465 442.843 220.023C442.369 219.581 442.132 219 442.132 218.28C442.132 217.678 442.294 217.152 442.617 216.701C442.941 216.25 443.383 215.901 443.944 215.655C444.504 215.404 445.14 215.279 445.851 215.279C446.575 215.279 447.211 215.404 447.758 215.655C448.305 215.906 448.731 216.252 449.036 216.694C449.346 217.136 449.508 217.64 449.522 218.205H447.751C447.706 217.767 447.51 217.43 447.163 217.193C446.822 216.951 446.375 216.831 445.823 216.831C445.441 216.831 445.11 216.89 444.832 217.008C444.559 217.122 444.347 217.28 444.197 217.48C444.051 217.681 443.978 217.911 443.978 218.171C443.978 218.453 444.064 218.686 444.238 218.868C444.415 219.05 444.636 219.196 444.901 219.305C445.17 219.415 445.441 219.504 445.714 219.572L446.664 219.818C447.043 219.909 447.409 220.03 447.765 220.18C448.12 220.331 448.439 220.522 448.722 220.755C449.009 220.982 449.237 221.26 449.406 221.589C449.574 221.917 449.658 222.302 449.658 222.744C449.658 223.341 449.506 223.867 449.2 224.323C448.895 224.774 448.455 225.127 447.881 225.382C447.307 225.633 446.614 225.758 445.803 225.758ZM453.869 225.697C453.345 225.697 452.885 225.585 452.489 225.362C452.097 225.139 451.791 224.813 451.573 224.384C451.358 223.951 451.251 223.43 451.251 222.819V217.959H453.029V222.546C453.029 223.056 453.161 223.457 453.425 223.749C453.694 224.04 454.061 224.186 454.526 224.186C454.84 224.186 455.12 224.118 455.366 223.981C455.613 223.844 455.804 223.644 455.941 223.38C456.082 223.115 456.153 222.801 456.153 222.436V217.959H457.937V225.601H456.248L456.228 223.714H456.365C456.15 224.38 455.834 224.877 455.414 225.205C454.995 225.533 454.48 225.697 453.869 225.697ZM461.601 221.124V225.601H459.823V217.959H461.505L461.532 219.845H461.389C461.603 219.185 461.918 218.69 462.332 218.362C462.747 218.029 463.267 217.863 463.891 217.863C464.415 217.863 464.873 217.975 465.265 218.198C465.657 218.421 465.96 218.747 466.174 219.175C466.393 219.604 466.502 220.126 466.502 220.741V225.601H464.725V221.014C464.725 220.504 464.593 220.103 464.328 219.811C464.064 219.519 463.699 219.374 463.235 219.374C462.92 219.374 462.64 219.442 462.394 219.579C462.148 219.715 461.954 219.916 461.813 220.18C461.671 220.44 461.601 220.755 461.601 221.124ZM471.287 225.758C470.699 225.758 470.18 225.674 469.729 225.505C469.278 225.337 468.906 225.091 468.615 224.767C468.327 224.444 468.141 224.052 468.054 223.591L469.715 223.277C469.82 223.655 470.004 223.938 470.269 224.125C470.538 224.307 470.889 224.398 471.322 224.398C471.759 224.398 472.105 224.311 472.361 224.138C472.62 223.961 472.75 223.742 472.75 223.482C472.75 223.263 472.666 223.083 472.497 222.942C472.329 222.796 472.069 222.685 471.718 222.607L470.412 222.327C469.692 222.172 469.155 221.917 468.799 221.561C468.444 221.206 468.266 220.748 468.266 220.187C468.266 219.713 468.396 219.303 468.656 218.957C468.915 218.61 469.275 218.341 469.736 218.15C470.2 217.959 470.738 217.863 471.349 217.863C471.928 217.863 472.424 217.945 472.839 218.109C473.258 218.273 473.596 218.503 473.851 218.799C474.111 219.091 474.291 219.435 474.391 219.832L472.805 220.146C472.718 219.877 472.561 219.652 472.333 219.469C472.105 219.283 471.784 219.189 471.369 219.189C470.991 219.189 470.674 219.273 470.419 219.442C470.169 219.606 470.043 219.818 470.043 220.078C470.043 220.301 470.128 220.486 470.296 220.631C470.465 220.777 470.743 220.891 471.13 220.973L472.429 221.247C473.154 221.402 473.691 221.65 474.042 221.992C474.393 222.334 474.569 222.773 474.569 223.311C474.569 223.794 474.43 224.22 474.152 224.589C473.874 224.954 473.486 225.241 472.99 225.451C472.497 225.656 471.93 225.758 471.287 225.758ZM479.47 225.758C478.7 225.758 478.037 225.597 477.481 225.273C476.929 224.95 476.503 224.494 476.202 223.906C475.906 223.318 475.758 222.625 475.758 221.828C475.758 221.039 475.904 220.349 476.196 219.756C476.492 219.164 476.909 218.701 477.447 218.369C477.989 218.032 478.625 217.863 479.354 217.863C479.819 217.863 480.261 217.938 480.68 218.089C481.104 218.239 481.477 218.471 481.801 218.786C482.129 219.1 482.384 219.501 482.567 219.989C482.753 220.472 482.847 221.048 482.847 221.718V222.279H476.599V221.069H481.965L481.131 221.424C481.131 220.996 481.065 220.62 480.933 220.297C480.801 219.968 480.602 219.713 480.338 219.531C480.078 219.349 479.753 219.257 479.361 219.257C478.969 219.257 478.636 219.351 478.363 219.538C478.089 219.72 477.879 219.966 477.734 220.276C477.592 220.581 477.522 220.923 477.522 221.301V222.135C477.522 222.618 477.604 223.026 477.768 223.359C477.932 223.692 478.162 223.942 478.458 224.111C478.754 224.28 479.099 224.364 479.49 224.364C479.75 224.364 479.985 224.327 480.195 224.255C480.409 224.177 480.593 224.065 480.748 223.92C480.903 223.769 481.019 223.587 481.097 223.373L482.731 223.708C482.608 224.118 482.398 224.478 482.102 224.788C481.806 225.093 481.434 225.332 480.988 225.505C480.545 225.674 480.04 225.758 479.47 225.758ZM487.912 217.959V219.353H483.572V217.959H487.912ZM484.658 216.14H486.436V223.448C486.436 223.726 486.495 223.931 486.614 224.063C486.732 224.191 486.926 224.255 487.195 224.255C487.277 224.255 487.384 224.245 487.516 224.227C487.653 224.204 487.762 224.184 487.844 224.166L488.124 225.54C487.928 225.599 487.728 225.64 487.523 225.663C487.318 225.69 487.122 225.704 486.935 225.704C486.201 225.704 485.638 225.521 485.246 225.157C484.854 224.792 484.658 224.273 484.658 223.598V216.14ZM492.937 225.601V215.416H496.833C497.567 215.416 498.178 215.532 498.665 215.764C499.153 215.997 499.517 216.311 499.759 216.708C500.001 217.104 500.121 217.555 500.121 218.061C500.121 218.476 500.042 218.831 499.882 219.128C499.723 219.419 499.508 219.656 499.24 219.839C498.975 220.021 498.677 220.151 498.344 220.228V220.331C498.704 220.349 499.05 220.458 499.383 220.659C499.716 220.859 499.987 221.142 500.197 221.506C500.411 221.871 500.518 222.311 500.518 222.826C500.518 223.354 500.39 223.828 500.135 224.248C499.88 224.667 499.495 224.997 498.98 225.239C498.469 225.48 497.824 225.601 497.045 225.601H492.937ZM494.762 224.077H496.758C497.433 224.077 497.918 223.947 498.214 223.687C498.515 223.427 498.665 223.095 498.665 222.689C498.665 222.384 498.59 222.11 498.44 221.869C498.289 221.623 498.075 221.429 497.797 221.288C497.524 221.146 497.198 221.076 496.82 221.076H494.762V224.077ZM494.762 219.756H496.601C496.924 219.756 497.214 219.697 497.469 219.579C497.724 219.46 497.925 219.292 498.071 219.073C498.221 218.854 498.296 218.594 498.296 218.294C498.296 217.897 498.157 217.571 497.879 217.316C497.601 217.061 497.189 216.933 496.642 216.933H494.762V219.756ZM505.399 225.758C504.656 225.758 504.011 225.594 503.464 225.266C502.917 224.934 502.493 224.473 502.193 223.885C501.896 223.293 501.748 222.605 501.748 221.821C501.748 221.028 501.896 220.335 502.193 219.743C502.493 219.146 502.917 218.683 503.464 218.355C504.011 218.027 504.656 217.863 505.399 217.863C506.146 217.863 506.793 218.027 507.34 218.355C507.887 218.683 508.309 219.146 508.605 219.743C508.906 220.335 509.056 221.028 509.056 221.821C509.056 222.605 508.906 223.293 508.605 223.885C508.309 224.473 507.887 224.934 507.34 225.266C506.793 225.594 506.146 225.758 505.399 225.758ZM505.399 224.316C505.813 224.316 506.157 224.204 506.431 223.981C506.709 223.758 506.914 223.457 507.046 223.079C507.183 222.7 507.251 222.279 507.251 221.814C507.251 221.345 507.183 220.921 507.046 220.543C506.914 220.164 506.709 219.864 506.431 219.64C506.157 219.417 505.813 219.305 505.399 219.305C504.984 219.305 504.64 219.417 504.366 219.64C504.098 219.864 503.895 220.164 503.758 220.543C503.626 220.916 503.56 221.34 503.56 221.814C503.56 222.279 503.626 222.7 503.758 223.079C503.895 223.457 504.098 223.758 504.366 223.981C504.64 224.204 504.984 224.316 505.399 224.316ZM513.233 225.697C512.709 225.697 512.248 225.585 511.852 225.362C511.46 225.139 511.155 224.813 510.936 224.384C510.722 223.951 510.615 223.43 510.615 222.819V217.959H512.392V222.546C512.392 223.056 512.524 223.457 512.788 223.749C513.057 224.04 513.424 224.186 513.889 224.186C514.203 224.186 514.484 224.118 514.73 223.981C514.976 223.844 515.167 223.644 515.304 223.38C515.445 223.115 515.516 222.801 515.516 222.436V217.959H517.3V225.601H515.612L515.591 223.714H515.728C515.514 224.38 515.197 224.877 514.778 225.205C514.358 225.533 513.843 225.697 513.233 225.697ZM520.964 215.416V225.601H519.187V215.416H520.964ZM526.228 225.758C525.458 225.758 524.795 225.597 524.239 225.273C523.687 224.95 523.261 224.494 522.96 223.906C522.664 223.318 522.516 222.625 522.516 221.828C522.516 221.039 522.662 220.349 522.953 219.756C523.25 219.164 523.667 218.701 524.204 218.369C524.747 218.032 525.382 217.863 526.112 217.863C526.576 217.863 527.018 217.938 527.438 218.089C527.862 218.239 528.235 218.471 528.559 218.786C528.887 219.1 529.142 219.501 529.324 219.989C529.511 220.472 529.605 221.048 529.605 221.718V222.279H523.357V221.069H528.723L527.889 221.424C527.889 220.996 527.823 220.62 527.691 220.297C527.559 219.968 527.36 219.713 527.096 219.531C526.836 219.349 526.51 219.257 526.118 219.257C525.726 219.257 525.394 219.351 525.12 219.538C524.847 219.72 524.637 219.966 524.491 220.276C524.35 220.581 524.28 220.923 524.28 221.301V222.135C524.28 222.618 524.362 223.026 524.526 223.359C524.69 223.692 524.92 223.942 525.216 224.111C525.512 224.28 525.856 224.364 526.248 224.364C526.508 224.364 526.743 224.327 526.952 224.255C527.167 224.177 527.351 224.065 527.506 223.92C527.661 223.769 527.777 223.587 527.855 223.373L529.489 223.708C529.365 224.118 529.156 224.478 528.86 224.788C528.563 225.093 528.192 225.332 527.745 225.505C527.303 225.674 526.797 225.758 526.228 225.758ZM533.043 225.601L530.199 217.959H532.1L533.494 222.115C533.658 222.602 533.8 223.092 533.918 223.585C534.037 224.077 534.157 224.576 534.281 225.082H533.836C533.964 224.576 534.085 224.077 534.198 223.585C534.317 223.092 534.456 222.602 534.615 222.115L536.003 217.959H537.89L535.032 225.601H533.043ZM541.116 225.758C540.633 225.758 540.198 225.672 539.811 225.499C539.423 225.321 539.118 225.061 538.895 224.719C538.671 224.378 538.56 223.956 538.56 223.455C538.56 223.022 538.64 222.664 538.799 222.381C538.963 222.099 539.182 221.873 539.455 221.705C539.733 221.536 540.045 221.408 540.392 221.322C540.738 221.235 541.098 221.174 541.472 221.137C541.914 221.087 542.274 221.044 542.552 221.007C542.83 220.971 543.033 220.912 543.16 220.83C543.293 220.748 543.359 220.62 543.359 220.447V220.413C543.359 220.162 543.309 219.95 543.208 219.777C543.108 219.599 542.958 219.465 542.757 219.374C542.561 219.278 542.317 219.23 542.026 219.23C541.729 219.23 541.472 219.276 541.253 219.367C541.039 219.458 540.864 219.576 540.727 219.722C540.59 219.868 540.49 220.025 540.426 220.194L538.779 219.859C538.929 219.408 539.161 219.036 539.476 218.745C539.79 218.449 540.164 218.227 540.597 218.082C541.034 217.936 541.508 217.863 542.019 217.863C542.379 217.863 542.741 217.906 543.106 217.993C543.475 218.075 543.812 218.216 544.117 218.417C544.423 218.617 544.669 218.886 544.856 219.223C545.043 219.561 545.136 219.984 545.136 220.495V225.601H543.434V224.548H543.365C543.252 224.763 543.094 224.963 542.894 225.15C542.698 225.332 542.452 225.48 542.156 225.594C541.864 225.704 541.517 225.758 541.116 225.758ZM541.574 224.439C541.944 224.439 542.26 224.366 542.525 224.22C542.794 224.075 543.001 223.883 543.147 223.646C543.297 223.405 543.372 223.143 543.372 222.86V221.958C543.313 222.003 543.213 222.047 543.072 222.088C542.935 222.129 542.78 222.165 542.607 222.197C542.438 222.229 542.269 222.256 542.101 222.279C541.937 222.302 541.798 222.32 541.684 222.334C541.42 222.37 541.18 222.429 540.966 222.511C540.752 222.593 540.583 222.71 540.46 222.86C540.342 223.006 540.282 223.197 540.282 223.434C540.282 223.653 540.337 223.838 540.447 223.988C540.56 224.134 540.713 224.245 540.905 224.323C541.101 224.4 541.324 224.439 541.574 224.439ZM547.023 225.601V217.959H548.745V219.237H548.827C548.964 218.795 549.203 218.455 549.545 218.218C549.887 217.977 550.277 217.856 550.714 217.856C550.814 217.856 550.926 217.861 551.049 217.87C551.172 217.879 551.277 217.89 551.364 217.904V219.538C551.291 219.515 551.172 219.494 551.008 219.476C550.844 219.458 550.682 219.449 550.523 219.449C550.195 219.449 549.898 219.519 549.634 219.661C549.374 219.802 549.169 219.998 549.019 220.249C548.873 220.495 548.8 220.78 548.8 221.103V225.601H547.023ZM555.103 225.738C554.501 225.738 553.961 225.585 553.483 225.28C553.009 224.97 552.635 224.521 552.362 223.933C552.088 223.345 551.951 222.632 551.951 221.794C551.951 220.946 552.09 220.23 552.368 219.647C552.651 219.059 553.029 218.615 553.503 218.314C553.982 218.013 554.513 217.863 555.096 217.863C555.552 217.863 555.923 217.94 556.21 218.095C556.502 218.246 556.732 218.426 556.901 218.635C557.074 218.845 557.204 219.041 557.29 219.223H557.365V215.416H559.143V225.601H557.4V224.391H557.29C557.199 224.574 557.065 224.769 556.887 224.979C556.714 225.189 556.484 225.369 556.197 225.519C555.909 225.665 555.545 225.738 555.103 225.738ZM555.588 224.275C555.976 224.275 556.304 224.172 556.573 223.967C556.841 223.758 557.046 223.466 557.188 223.092C557.329 222.719 557.4 222.283 557.4 221.787C557.4 221.29 557.329 220.859 557.188 220.495C557.051 220.126 556.846 219.839 556.573 219.633C556.304 219.428 555.976 219.326 555.588 219.326C555.187 219.326 554.852 219.433 554.583 219.647C554.314 219.857 554.112 220.148 553.975 220.522C553.838 220.891 553.77 221.313 553.77 221.787C553.77 222.261 553.838 222.687 553.975 223.065C554.112 223.439 554.314 223.735 554.583 223.954C554.857 224.168 555.192 224.275 555.588 224.275ZM564.338 223.708V222.252L568.665 215.416H569.868V217.494H569.137L566.204 222.122V222.204H572.247V223.708H564.338ZM569.185 225.601V223.27L569.219 222.607V215.416H570.935V225.601H569.185ZM577.545 225.738C576.725 225.738 576.023 225.533 575.44 225.123C574.856 224.708 574.41 224.113 574.1 223.339C573.79 222.559 573.635 221.618 573.635 220.515C573.635 219.412 573.79 218.471 574.1 217.692C574.414 216.913 574.861 216.316 575.44 215.901C576.023 215.486 576.725 215.279 577.545 215.279C578.37 215.279 579.074 215.486 579.657 215.901C580.241 216.316 580.687 216.913 580.997 217.692C581.307 218.471 581.462 219.412 581.462 220.515C581.462 221.618 581.307 222.559 580.997 223.339C580.692 224.113 580.248 224.708 579.664 225.123C579.081 225.533 578.375 225.738 577.545 225.738ZM577.552 224.207C577.994 224.207 578.368 224.063 578.673 223.776C578.983 223.484 579.218 223.065 579.377 222.518C579.541 221.967 579.623 221.299 579.623 220.515C579.623 219.727 579.541 219.057 579.377 218.505C579.218 217.954 578.983 217.533 578.673 217.241C578.368 216.949 577.994 216.803 577.552 216.803C577.105 216.803 576.727 216.949 576.417 217.241C576.112 217.533 575.877 217.954 575.713 218.505C575.554 219.057 575.474 219.727 575.474 220.515C575.474 221.299 575.554 221.967 575.713 222.518C575.873 223.065 576.107 223.484 576.417 223.776C576.727 224.063 577.105 224.207 577.552 224.207ZM586.398 225.738C585.732 225.738 585.138 225.615 584.614 225.369C584.094 225.118 583.682 224.774 583.376 224.337C583.071 223.899 582.909 223.4 582.891 222.839H584.668C584.682 223.117 584.768 223.364 584.928 223.578C585.087 223.787 585.295 223.954 585.55 224.077C585.805 224.195 586.088 224.255 586.398 224.255C586.762 224.255 587.084 224.172 587.362 224.008C587.644 223.84 587.865 223.61 588.025 223.318C588.189 223.022 588.271 222.682 588.271 222.299C588.271 221.912 588.186 221.568 588.018 221.267C587.854 220.966 587.626 220.732 587.334 220.563C587.047 220.39 586.717 220.303 586.343 220.303C586.033 220.303 585.73 220.363 585.434 220.481C585.142 220.595 584.91 220.745 584.737 220.932L583.082 220.666L583.615 215.416H589.508V216.947H585.126L584.839 219.654H584.894C585.085 219.431 585.352 219.248 585.694 219.107C586.04 218.961 586.418 218.888 586.828 218.888C587.289 218.888 587.715 218.973 588.107 219.141C588.499 219.305 588.838 219.54 589.125 219.845C589.417 220.146 589.642 220.502 589.802 220.912C589.962 221.322 590.041 221.771 590.041 222.258C590.041 222.933 589.886 223.532 589.576 224.056C589.267 224.576 588.838 224.986 588.291 225.287C587.744 225.588 587.113 225.738 586.398 225.738Z" fill="#0E0F10"/>
<path d="M445.743 233.759C446.833 233.759 447.679 234.047 448.281 234.621C448.882 235.195 449.216 235.847 449.282 236.578H448.146C448.017 236.023 447.759 235.584 447.372 235.259C446.99 234.935 446.45 234.773 445.755 234.773C444.907 234.773 444.222 235.072 443.698 235.67C443.179 236.263 442.919 237.175 442.919 238.406C442.919 239.414 443.154 240.232 443.622 240.861C444.095 241.486 444.798 241.798 445.732 241.798C446.591 241.798 447.245 241.468 447.695 240.808C447.933 240.461 448.111 240.004 448.228 239.437H449.365C449.263 240.343 448.927 241.103 448.357 241.716C447.673 242.455 446.751 242.824 445.591 242.824C444.591 242.824 443.751 242.521 443.072 241.916C442.177 241.115 441.73 239.879 441.73 238.207C441.73 236.937 442.066 235.896 442.738 235.084C443.464 234.201 444.466 233.759 445.743 233.759ZM453.138 241.922C453.837 241.922 454.316 241.658 454.573 241.13C454.835 240.599 454.966 240.009 454.966 239.361C454.966 238.775 454.872 238.298 454.685 237.931C454.388 237.353 453.876 237.064 453.15 237.064C452.505 237.064 452.036 237.31 451.743 237.802C451.45 238.295 451.304 238.888 451.304 239.584C451.304 240.252 451.45 240.808 451.743 241.254C452.036 241.699 452.501 241.922 453.138 241.922ZM453.179 236.144C453.988 236.144 454.671 236.414 455.23 236.953C455.788 237.492 456.068 238.285 456.068 239.332C456.068 240.343 455.822 241.179 455.329 241.839C454.837 242.5 454.073 242.83 453.038 242.83C452.175 242.83 451.49 242.539 450.982 241.957C450.474 241.371 450.22 240.586 450.22 239.601C450.22 238.547 450.488 237.707 451.023 237.082C451.558 236.457 452.277 236.144 453.179 236.144ZM457.327 236.326H458.37V237.216C458.62 236.908 458.847 236.683 459.05 236.543C459.398 236.304 459.792 236.185 460.234 236.185C460.734 236.185 461.136 236.308 461.441 236.554C461.613 236.695 461.769 236.902 461.909 237.175C462.144 236.839 462.419 236.591 462.736 236.431C463.052 236.267 463.407 236.185 463.802 236.185C464.646 236.185 465.22 236.49 465.525 237.099C465.689 237.427 465.771 237.869 465.771 238.423V242.601H464.675V238.242C464.675 237.824 464.57 237.537 464.359 237.38C464.152 237.224 463.898 237.146 463.597 237.146C463.183 237.146 462.825 237.285 462.525 237.562C462.228 237.839 462.079 238.302 462.079 238.951V242.601H461.007V238.505C461.007 238.08 460.956 237.769 460.855 237.574C460.695 237.281 460.396 237.134 459.958 237.134C459.56 237.134 459.197 237.289 458.868 237.597C458.544 237.906 458.382 238.464 458.382 239.273V242.601H457.327V236.326ZM467.323 236.326H468.366V237.216C468.616 236.908 468.843 236.683 469.046 236.543C469.394 236.304 469.788 236.185 470.23 236.185C470.73 236.185 471.132 236.308 471.437 236.554C471.609 236.695 471.765 236.902 471.906 237.175C472.14 236.839 472.415 236.591 472.732 236.431C473.048 236.267 473.404 236.185 473.798 236.185C474.642 236.185 475.216 236.49 475.521 237.099C475.685 237.427 475.767 237.869 475.767 238.423V242.601H474.671V238.242C474.671 237.824 474.566 237.537 474.355 237.38C474.148 237.224 473.894 237.146 473.593 237.146C473.179 237.146 472.822 237.285 472.521 237.562C472.224 237.839 472.075 238.302 472.075 238.951V242.601H471.003V238.505C471.003 238.08 470.952 237.769 470.851 237.574C470.691 237.281 470.392 237.134 469.954 237.134C469.556 237.134 469.193 237.289 468.865 237.597C468.54 237.906 468.378 238.464 468.378 239.273V242.601H467.323V236.326ZM479.933 236.185C480.378 236.185 480.81 236.291 481.228 236.502C481.646 236.709 481.964 236.978 482.183 237.31C482.394 237.627 482.534 237.996 482.605 238.418C482.667 238.707 482.698 239.168 482.698 239.8H478.099C478.118 240.437 478.269 240.949 478.55 241.336C478.831 241.718 479.267 241.91 479.857 241.91C480.407 241.91 480.847 241.728 481.175 241.365C481.363 241.154 481.495 240.91 481.573 240.632H482.611C482.583 240.863 482.491 241.121 482.335 241.406C482.183 241.687 482.011 241.918 481.82 242.097C481.499 242.41 481.103 242.621 480.63 242.73C480.376 242.793 480.089 242.824 479.769 242.824C478.988 242.824 478.325 242.541 477.782 241.974C477.24 241.404 476.968 240.607 476.968 239.584C476.968 238.576 477.241 237.757 477.788 237.129C478.335 236.5 479.05 236.185 479.933 236.185ZM481.615 238.963C481.572 238.505 481.472 238.14 481.316 237.867C481.027 237.359 480.544 237.105 479.868 237.105C479.384 237.105 478.978 237.281 478.65 237.632C478.322 237.98 478.148 238.423 478.128 238.963H481.615ZM484.029 236.326H485.031V237.41C485.113 237.199 485.314 236.943 485.634 236.642C485.954 236.338 486.323 236.185 486.741 236.185C486.761 236.185 486.794 236.187 486.841 236.191C486.888 236.195 486.968 236.203 487.081 236.214V237.328C487.019 237.316 486.96 237.308 486.906 237.304C486.855 237.3 486.798 237.298 486.736 237.298C486.204 237.298 485.796 237.47 485.511 237.814C485.226 238.154 485.083 238.547 485.083 238.992V242.601H484.029V236.326ZM490.415 236.144C491.122 236.144 491.697 236.316 492.138 236.66C492.583 237.004 492.851 237.595 492.941 238.435H491.915C491.853 238.048 491.71 237.728 491.488 237.474C491.265 237.216 490.907 237.088 490.415 237.088C489.743 237.088 489.263 237.416 488.974 238.072C488.786 238.498 488.693 239.023 488.693 239.648C488.693 240.277 488.825 240.806 489.091 241.236C489.357 241.666 489.775 241.88 490.345 241.88C490.782 241.88 491.128 241.748 491.382 241.482C491.64 241.213 491.818 240.845 491.915 240.38H492.941C492.823 241.213 492.531 241.822 492.062 242.209C491.593 242.591 490.993 242.783 490.263 242.783C489.443 242.783 488.788 242.484 488.3 241.886C487.812 241.285 487.568 240.535 487.568 239.636C487.568 238.535 487.835 237.677 488.37 237.064C488.906 236.451 489.587 236.144 490.415 236.144ZM493.995 236.355H495.068V242.601H493.995V236.355ZM493.995 233.994H495.068V235.189H493.995V233.994ZM497.476 240.931C497.476 241.236 497.587 241.476 497.81 241.652C498.032 241.828 498.296 241.916 498.601 241.916C498.972 241.916 499.331 241.83 499.679 241.658C500.265 241.373 500.558 240.906 500.558 240.257V239.408C500.429 239.49 500.263 239.558 500.06 239.613C499.857 239.668 499.657 239.707 499.462 239.73L498.823 239.812C498.441 239.863 498.154 239.943 497.962 240.052C497.638 240.236 497.476 240.529 497.476 240.931ZM500.031 238.798C500.273 238.767 500.435 238.666 500.517 238.494C500.564 238.4 500.587 238.265 500.587 238.089C500.587 237.73 500.458 237.47 500.2 237.31C499.947 237.146 499.581 237.064 499.105 237.064C498.554 237.064 498.163 237.213 497.933 237.509C497.804 237.673 497.72 237.918 497.681 238.242H496.697C496.716 237.468 496.966 236.931 497.447 236.63C497.931 236.326 498.491 236.173 499.128 236.173C499.866 236.173 500.466 236.314 500.927 236.595C501.384 236.877 501.613 237.314 501.613 237.908V241.523C501.613 241.632 501.634 241.72 501.677 241.787C501.724 241.853 501.82 241.886 501.964 241.886C502.011 241.886 502.064 241.884 502.122 241.88C502.181 241.873 502.243 241.863 502.31 241.851V242.63C502.146 242.677 502.021 242.707 501.935 242.718C501.849 242.73 501.732 242.736 501.583 242.736C501.22 242.736 500.956 242.607 500.792 242.349C500.706 242.213 500.646 242.019 500.611 241.769C500.396 242.05 500.087 242.295 499.685 242.502C499.282 242.709 498.839 242.812 498.355 242.812C497.773 242.812 497.296 242.636 496.925 242.285C496.558 241.929 496.374 241.486 496.374 240.955C496.374 240.373 496.556 239.922 496.919 239.601C497.282 239.281 497.759 239.084 498.349 239.009L500.031 238.798ZM503.376 233.994H504.431V242.601H503.376V233.994ZM512.048 238.3C512.048 238.675 511.925 238.986 511.679 239.232C511.437 239.478 511.128 239.601 510.753 239.601C510.378 239.601 510.068 239.478 509.822 239.232C509.579 238.986 509.458 238.675 509.458 238.3C509.458 237.925 509.579 237.617 509.822 237.375C510.068 237.132 510.378 237.011 510.753 237.011C511.128 237.011 511.437 237.132 511.679 237.375C511.925 237.617 512.048 237.925 512.048 238.3ZM517.046 233.994H518.212V241.576H522.572V242.601H517.046V233.994ZM526.075 241.922C526.775 241.922 527.253 241.658 527.511 241.13C527.773 240.599 527.904 240.009 527.904 239.361C527.904 238.775 527.81 238.298 527.622 237.931C527.325 237.353 526.814 237.064 526.087 237.064C525.443 237.064 524.974 237.31 524.681 237.802C524.388 238.295 524.241 238.888 524.241 239.584C524.241 240.252 524.388 240.808 524.681 241.254C524.974 241.699 525.439 241.922 526.075 241.922ZM526.116 236.144C526.925 236.144 527.609 236.414 528.167 236.953C528.726 237.492 529.005 238.285 529.005 239.332C529.005 240.343 528.759 241.179 528.267 241.839C527.775 242.5 527.011 242.83 525.976 242.83C525.113 242.83 524.427 242.539 523.919 241.957C523.411 241.371 523.157 240.586 523.157 239.601C523.157 238.547 523.425 237.707 523.96 237.082C524.495 236.457 525.214 236.144 526.116 236.144ZM530.892 240.632C530.923 240.984 531.011 241.254 531.156 241.441C531.421 241.781 531.882 241.951 532.538 241.951C532.929 241.951 533.273 241.867 533.57 241.699C533.866 241.527 534.015 241.263 534.015 240.908C534.015 240.638 533.896 240.433 533.657 240.293C533.505 240.207 533.204 240.107 532.755 239.994L531.917 239.783C531.382 239.65 530.988 239.502 530.734 239.338C530.281 239.052 530.054 238.658 530.054 238.154C530.054 237.56 530.267 237.08 530.693 236.713C531.122 236.345 531.698 236.162 532.421 236.162C533.366 236.162 534.048 236.439 534.466 236.994C534.728 237.345 534.855 237.724 534.847 238.13H533.851C533.831 237.892 533.747 237.675 533.599 237.48C533.357 237.203 532.937 237.064 532.339 237.064C531.941 237.064 531.638 237.14 531.431 237.293C531.228 237.445 531.126 237.646 531.126 237.896C531.126 238.17 531.261 238.388 531.531 238.552C531.687 238.65 531.917 238.736 532.222 238.81L532.919 238.98C533.677 239.164 534.185 239.341 534.443 239.513C534.853 239.783 535.058 240.207 535.058 240.785C535.058 241.343 534.845 241.826 534.419 242.232C533.997 242.638 533.353 242.841 532.486 242.841C531.552 242.841 530.89 242.63 530.499 242.209C530.113 241.783 529.906 241.257 529.878 240.632H530.892ZM543.507 239.074L542.2 235.271L540.812 239.074H543.507ZM541.591 233.994H542.909L546.032 242.601H544.755L543.882 240.023H540.478L539.546 242.601H538.351L541.591 233.994ZM546.952 236.326H547.954V237.216C548.251 236.849 548.566 236.586 548.898 236.425C549.23 236.265 549.599 236.185 550.005 236.185C550.896 236.185 551.497 236.496 551.81 237.117C551.982 237.457 552.068 237.943 552.068 238.576V242.601H550.995V238.646C550.995 238.263 550.939 237.955 550.825 237.72C550.638 237.33 550.298 237.134 549.806 237.134C549.556 237.134 549.351 237.16 549.191 237.211C548.902 237.297 548.648 237.468 548.429 237.726C548.253 237.933 548.138 238.148 548.083 238.371C548.032 238.589 548.007 238.904 548.007 239.314V242.601H546.952V236.326ZM555.847 236.214C556.339 236.214 556.769 236.336 557.136 236.578C557.335 236.714 557.538 236.914 557.745 237.175V236.384H558.718V242.091C558.718 242.888 558.601 243.517 558.366 243.978C557.929 244.83 557.103 245.255 555.888 245.255C555.212 245.255 554.644 245.103 554.183 244.798C553.722 244.498 553.464 244.025 553.409 243.38H554.482C554.532 243.662 554.634 243.879 554.786 244.031C555.025 244.265 555.4 244.382 555.911 244.382C556.72 244.382 557.249 244.097 557.499 243.527C557.648 243.191 557.716 242.591 557.704 241.728C557.493 242.048 557.24 242.287 556.943 242.443C556.646 242.599 556.253 242.677 555.765 242.677C555.085 242.677 554.49 242.437 553.978 241.957C553.47 241.472 553.216 240.673 553.216 239.56C553.216 238.509 553.472 237.689 553.984 237.099C554.499 236.509 555.12 236.214 555.847 236.214ZM557.745 239.437C557.745 238.66 557.585 238.084 557.265 237.709C556.945 237.334 556.536 237.146 556.04 237.146C555.298 237.146 554.79 237.494 554.517 238.189C554.372 238.56 554.3 239.047 554.3 239.648C554.3 240.355 554.443 240.894 554.728 241.265C555.017 241.632 555.404 241.816 555.888 241.816C556.646 241.816 557.179 241.474 557.488 240.791C557.659 240.404 557.745 239.953 557.745 239.437ZM562.925 236.185C563.37 236.185 563.802 236.291 564.22 236.502C564.638 236.709 564.956 236.978 565.175 237.31C565.386 237.627 565.527 237.996 565.597 238.418C565.659 238.707 565.691 239.168 565.691 239.8H561.091C561.111 240.437 561.261 240.949 561.542 241.336C561.823 241.718 562.259 241.91 562.849 241.91C563.4 241.91 563.839 241.728 564.167 241.365C564.355 241.154 564.488 240.91 564.566 240.632H565.603C565.575 240.863 565.484 241.121 565.327 241.406C565.175 241.687 565.003 241.918 564.812 242.097C564.491 242.41 564.095 242.621 563.622 242.73C563.368 242.793 563.081 242.824 562.761 242.824C561.98 242.824 561.318 242.541 560.775 241.974C560.232 241.404 559.96 240.607 559.96 239.584C559.96 238.576 560.234 237.757 560.781 237.129C561.327 236.5 562.042 236.185 562.925 236.185ZM564.607 238.963C564.564 238.505 564.464 238.14 564.308 237.867C564.019 237.359 563.536 237.105 562.861 237.105C562.376 237.105 561.97 237.281 561.642 237.632C561.314 237.98 561.14 238.423 561.12 238.963H564.607ZM567.021 233.994H568.075V242.601H567.021V233.994ZM572.277 236.185C572.722 236.185 573.154 236.291 573.572 236.502C573.99 236.709 574.308 236.978 574.527 237.31C574.738 237.627 574.878 237.996 574.948 238.418C575.011 238.707 575.042 239.168 575.042 239.8H570.443C570.462 240.437 570.613 240.949 570.894 241.336C571.175 241.718 571.611 241.91 572.2 241.91C572.751 241.91 573.191 241.728 573.519 241.365C573.706 241.154 573.839 240.91 573.917 240.632H574.954C574.927 240.863 574.835 241.121 574.679 241.406C574.527 241.687 574.355 241.918 574.163 242.097C573.843 242.41 573.447 242.621 572.974 242.73C572.72 242.793 572.433 242.824 572.113 242.824C571.331 242.824 570.669 242.541 570.126 241.974C569.583 241.404 569.312 240.607 569.312 239.584C569.312 238.576 569.585 237.757 570.132 237.129C570.679 236.5 571.394 236.185 572.277 236.185ZM573.958 238.963C573.915 238.505 573.816 238.14 573.659 237.867C573.37 237.359 572.888 237.105 572.212 237.105C571.728 237.105 571.322 237.281 570.993 237.632C570.665 237.98 570.491 238.423 570.472 238.963H573.958ZM576.97 240.632C577.001 240.984 577.089 241.254 577.234 241.441C577.499 241.781 577.96 241.951 578.616 241.951C579.007 241.951 579.351 241.867 579.648 241.699C579.945 241.527 580.093 241.263 580.093 240.908C580.093 240.638 579.974 240.433 579.736 240.293C579.583 240.207 579.282 240.107 578.833 239.994L577.995 239.783C577.46 239.65 577.066 239.502 576.812 239.338C576.359 239.052 576.132 238.658 576.132 238.154C576.132 237.56 576.345 237.08 576.771 236.713C577.2 236.345 577.777 236.162 578.499 236.162C579.445 236.162 580.126 236.439 580.544 236.994C580.806 237.345 580.933 237.724 580.925 238.13H579.929C579.909 237.892 579.825 237.675 579.677 237.48C579.435 237.203 579.015 237.064 578.417 237.064C578.019 237.064 577.716 237.14 577.509 237.293C577.306 237.445 577.204 237.646 577.204 237.896C577.204 238.17 577.339 238.388 577.609 238.552C577.765 238.65 577.995 238.736 578.3 238.81L578.997 238.98C579.755 239.164 580.263 239.341 580.521 239.513C580.931 239.783 581.136 240.207 581.136 240.785C581.136 241.343 580.923 241.826 580.497 242.232C580.075 242.638 579.431 242.841 578.564 242.841C577.63 242.841 576.968 242.63 576.577 242.209C576.191 241.783 575.984 241.257 575.956 240.632H576.97Z" fill="#0E0F10"/>
</g>
<g filter="url(#filter4_dd_5229_48201)">
<path d="M125 147.5C125 140.873 130.373 135.5 137 135.5H353C359.627 135.5 365 140.873 365 147.5V184.5C365 191.127 359.627 196.5 353 196.5H137C130.373 196.5 125 191.127 125 184.5V147.5Z" fill="white" shape-rendering="crispEdges"/>
<g clip-path="url(#clip1_5229_48201)">
<circle cx="155.5" cy="166" r="18.5" fill="url(#paint15_linear_5229_48201)"/>
<circle cx="155.5" cy="166" r="18.5" fill="url(#paint16_radial_5229_48201)" fill-opacity="0.2"/>
<path d="M151.904 171.65C151.088 171.65 150.377 171.525 149.771 171.274C149.169 171.024 148.7 170.652 148.363 170.16C148.025 169.668 147.848 169.062 147.829 168.342H149.86C149.887 168.684 149.99 168.971 150.167 169.203C150.345 169.431 150.582 169.602 150.878 169.716C151.174 169.83 151.509 169.887 151.883 169.887C152.257 169.887 152.58 169.834 152.854 169.729C153.132 169.62 153.348 169.467 153.503 169.271C153.658 169.076 153.736 168.848 153.736 168.588C153.736 168.355 153.665 168.162 153.524 168.007C153.387 167.847 153.189 167.711 152.929 167.597C152.669 167.483 152.353 167.382 151.979 167.296L150.858 167.016C149.996 166.806 149.322 166.478 148.834 166.031C148.347 165.58 148.103 164.985 148.103 164.247C148.103 163.632 148.267 163.094 148.595 162.634C148.928 162.174 149.381 161.816 149.955 161.561C150.534 161.305 151.193 161.178 151.931 161.178C152.683 161.178 153.339 161.308 153.9 161.567C154.46 161.823 154.898 162.18 155.212 162.641C155.527 163.096 155.688 163.623 155.698 164.22H153.681C153.645 163.81 153.469 163.493 153.155 163.27C152.845 163.046 152.43 162.935 151.91 162.935C151.56 162.935 151.259 162.985 151.008 163.085C150.757 163.185 150.566 163.324 150.434 163.502C150.306 163.68 150.243 163.882 150.243 164.11C150.243 164.361 150.318 164.571 150.468 164.739C150.618 164.903 150.819 165.038 151.07 165.143C151.32 165.243 151.587 165.327 151.869 165.396L152.792 165.621C153.221 165.717 153.619 165.847 153.989 166.011C154.358 166.175 154.681 166.378 154.959 166.619C155.237 166.856 155.451 167.139 155.602 167.467C155.757 167.795 155.834 168.173 155.834 168.602C155.834 169.217 155.679 169.755 155.369 170.215C155.06 170.671 154.611 171.024 154.023 171.274C153.435 171.525 152.729 171.65 151.904 171.65ZM160.438 171.637C159.381 171.637 158.547 171.361 157.936 170.81C157.33 170.254 157.027 169.463 157.027 168.438V167.843H159.112V168.472C159.112 168.959 159.23 169.328 159.467 169.579C159.709 169.83 160.033 169.955 160.438 169.955C160.844 169.955 161.165 169.83 161.402 169.579C161.639 169.328 161.758 168.957 161.758 168.465V161.314H163.822V168.431C163.822 169.461 163.521 170.254 162.92 170.81C162.318 171.361 161.491 171.637 160.438 171.637Z" fill="#0056CE"/>
</g>
<path d="M186.601 163.157C185.812 163.157 185.126 163.034 184.543 162.788C183.964 162.542 183.511 162.184 183.183 161.715C182.854 161.245 182.677 160.676 182.649 160.006H184.447C184.479 160.361 184.591 160.658 184.782 160.895C184.974 161.132 185.227 161.309 185.541 161.428C185.855 161.542 186.204 161.599 186.587 161.599C186.988 161.599 187.341 161.537 187.646 161.414C187.956 161.291 188.198 161.12 188.371 160.901C188.544 160.678 188.631 160.421 188.631 160.129C188.631 159.865 188.553 159.646 188.398 159.473C188.248 159.299 188.034 159.154 187.756 159.035C187.482 158.912 187.161 158.805 186.792 158.714L185.637 158.413C184.785 158.194 184.119 157.864 183.641 157.422C183.167 156.98 182.93 156.399 182.93 155.679C182.93 155.077 183.091 154.551 183.415 154.1C183.739 153.648 184.181 153.3 184.741 153.054C185.302 152.803 185.938 152.678 186.648 152.678C187.373 152.678 188.009 152.803 188.556 153.054C189.103 153.304 189.529 153.651 189.834 154.093C190.144 154.535 190.306 155.038 190.319 155.604H188.549C188.503 155.166 188.307 154.829 187.961 154.592C187.619 154.35 187.173 154.229 186.621 154.229C186.238 154.229 185.908 154.289 185.63 154.407C185.356 154.521 185.145 154.678 184.994 154.879C184.848 155.079 184.775 155.31 184.775 155.569C184.775 155.852 184.862 156.084 185.035 156.267C185.213 156.449 185.434 156.595 185.698 156.704C185.967 156.813 186.238 156.902 186.512 156.971L187.462 157.217C187.84 157.308 188.207 157.429 188.562 157.579C188.918 157.729 189.237 157.921 189.52 158.153C189.807 158.381 190.035 158.659 190.203 158.987C190.372 159.315 190.456 159.701 190.456 160.143C190.456 160.74 190.303 161.266 189.998 161.722C189.693 162.173 189.253 162.526 188.679 162.781C188.104 163.032 187.412 163.157 186.601 163.157ZM194.182 163.157C193.699 163.157 193.263 163.071 192.876 162.897C192.489 162.72 192.183 162.46 191.96 162.118C191.737 161.776 191.625 161.355 191.625 160.854C191.625 160.421 191.705 160.063 191.864 159.78C192.028 159.498 192.247 159.272 192.521 159.104C192.799 158.935 193.111 158.807 193.457 158.721C193.803 158.634 194.163 158.573 194.537 158.536C194.979 158.486 195.339 158.443 195.617 158.406C195.895 158.37 196.098 158.311 196.226 158.229C196.358 158.146 196.424 158.019 196.424 157.846V157.812C196.424 157.561 196.374 157.349 196.273 157.176C196.173 156.998 196.023 156.864 195.822 156.772C195.626 156.677 195.382 156.629 195.091 156.629C194.795 156.629 194.537 156.674 194.318 156.766C194.104 156.857 193.929 156.975 193.792 157.121C193.655 157.267 193.555 157.424 193.491 157.593L191.844 157.258C191.994 156.807 192.227 156.435 192.541 156.144C192.855 155.847 193.229 155.626 193.662 155.48C194.1 155.335 194.574 155.262 195.084 155.262C195.444 155.262 195.806 155.305 196.171 155.392C196.54 155.474 196.877 155.615 197.183 155.815C197.488 156.016 197.734 156.285 197.921 156.622C198.108 156.959 198.201 157.383 198.201 157.894V163H196.499V161.947H196.431C196.317 162.161 196.16 162.362 195.959 162.549C195.763 162.731 195.517 162.879 195.221 162.993C194.929 163.103 194.583 163.157 194.182 163.157ZM194.64 161.838C195.009 161.838 195.326 161.765 195.59 161.619C195.859 161.473 196.066 161.282 196.212 161.045C196.362 160.803 196.438 160.541 196.438 160.259V159.356C196.378 159.402 196.278 159.445 196.137 159.486C196 159.527 195.845 159.564 195.672 159.596C195.503 159.628 195.335 159.655 195.166 159.678C195.002 159.701 194.863 159.719 194.749 159.732C194.485 159.769 194.245 159.828 194.031 159.91C193.817 159.992 193.648 160.108 193.525 160.259C193.407 160.405 193.348 160.596 193.348 160.833C193.348 161.052 193.402 161.236 193.512 161.387C193.626 161.533 193.778 161.644 193.97 161.722C194.166 161.799 194.389 161.838 194.64 161.838ZM200.088 163V155.357H201.811V156.636H201.893C202.029 156.194 202.269 155.854 202.61 155.617C202.952 155.376 203.342 155.255 203.779 155.255C203.88 155.255 203.991 155.259 204.114 155.269C204.237 155.278 204.342 155.289 204.429 155.303V156.937C204.356 156.914 204.237 156.893 204.073 156.875C203.909 156.857 203.747 156.848 203.588 156.848C203.26 156.848 202.964 156.918 202.699 157.06C202.439 157.201 202.234 157.397 202.084 157.647C201.938 157.894 201.865 158.178 201.865 158.502V163H200.088ZM207.662 163.157C207.179 163.157 206.744 163.071 206.356 162.897C205.969 162.72 205.664 162.46 205.44 162.118C205.217 161.776 205.105 161.355 205.105 160.854C205.105 160.421 205.185 160.063 205.345 159.78C205.509 159.498 205.728 159.272 206.001 159.104C206.279 158.935 206.591 158.807 206.938 158.721C207.284 158.634 207.644 158.573 208.018 158.536C208.46 158.486 208.82 158.443 209.098 158.406C209.376 158.37 209.578 158.311 209.706 158.229C209.838 158.146 209.904 158.019 209.904 157.846V157.812C209.904 157.561 209.854 157.349 209.754 157.176C209.654 156.998 209.503 156.864 209.303 156.772C209.107 156.677 208.863 156.629 208.571 156.629C208.275 156.629 208.018 156.674 207.799 156.766C207.585 156.857 207.409 156.975 207.272 157.121C207.136 157.267 207.035 157.424 206.972 157.593L205.324 157.258C205.475 156.807 205.707 156.435 206.021 156.144C206.336 155.847 206.71 155.626 207.143 155.48C207.58 155.335 208.054 155.262 208.564 155.262C208.924 155.262 209.287 155.305 209.651 155.392C210.021 155.474 210.358 155.615 210.663 155.815C210.968 156.016 211.215 156.285 211.401 156.622C211.588 156.959 211.682 157.383 211.682 157.894V163H209.979V161.947H209.911C209.797 162.161 209.64 162.362 209.439 162.549C209.243 162.731 208.997 162.879 208.701 162.993C208.41 163.103 208.063 163.157 207.662 163.157ZM208.12 161.838C208.489 161.838 208.806 161.765 209.07 161.619C209.339 161.473 209.547 161.282 209.692 161.045C209.843 160.803 209.918 160.541 209.918 160.259V159.356C209.859 159.402 209.758 159.445 209.617 159.486C209.48 159.527 209.326 159.564 209.152 159.596C208.984 159.628 208.815 159.655 208.646 159.678C208.482 159.701 208.343 159.719 208.229 159.732C207.965 159.769 207.726 159.828 207.512 159.91C207.298 159.992 207.129 160.108 207.006 160.259C206.887 160.405 206.828 160.596 206.828 160.833C206.828 161.052 206.883 161.236 206.992 161.387C207.106 161.533 207.259 161.644 207.45 161.722C207.646 161.799 207.869 161.838 208.12 161.838ZM215.346 158.522V163H213.568V152.814H215.318V157.244H215.134C215.348 156.583 215.662 156.089 216.077 155.761C216.492 155.428 217.011 155.262 217.636 155.262C218.16 155.262 218.618 155.373 219.01 155.597C219.406 155.82 219.712 156.146 219.926 156.574C220.145 157.003 220.254 157.524 220.254 158.14V163H218.47V158.413C218.47 157.903 218.338 157.502 218.073 157.21C217.809 156.918 217.444 156.772 216.979 156.772C216.665 156.772 216.385 156.841 216.139 156.978C215.893 157.114 215.699 157.315 215.558 157.579C215.416 157.839 215.346 158.153 215.346 158.522ZM228.553 163.137C227.546 163.137 226.743 162.866 226.146 162.323C225.554 161.776 225.258 160.999 225.258 159.992V159.411H227.083V160.006C227.083 160.539 227.215 160.945 227.479 161.223C227.748 161.496 228.106 161.633 228.553 161.633C228.995 161.633 229.348 161.496 229.612 161.223C229.877 160.945 230.009 160.539 230.009 160.006V152.814H231.82V159.985C231.82 160.993 231.524 161.77 230.932 162.316C230.344 162.863 229.551 163.137 228.553 163.137ZM237.166 163.157C236.396 163.157 235.733 162.995 235.177 162.672C234.625 162.348 234.199 161.893 233.898 161.305C233.602 160.717 233.454 160.024 233.454 159.227C233.454 158.438 233.6 157.748 233.892 157.155C234.188 156.563 234.605 156.1 235.143 155.768C235.685 155.43 236.321 155.262 237.05 155.262C237.515 155.262 237.957 155.337 238.376 155.487C238.8 155.638 239.174 155.87 239.497 156.185C239.825 156.499 240.08 156.9 240.263 157.388C240.45 157.871 240.543 158.447 240.543 159.117V159.678H234.295V158.468H239.661L238.827 158.823C238.827 158.395 238.761 158.019 238.629 157.695C238.497 157.367 238.299 157.112 238.034 156.93C237.774 156.747 237.449 156.656 237.057 156.656C236.665 156.656 236.332 156.75 236.059 156.937C235.785 157.119 235.576 157.365 235.43 157.675C235.288 157.98 235.218 158.322 235.218 158.7V159.534C235.218 160.017 235.3 160.425 235.464 160.758C235.628 161.09 235.858 161.341 236.154 161.51C236.451 161.678 236.795 161.763 237.187 161.763C237.446 161.763 237.681 161.726 237.891 161.653C238.105 161.576 238.289 161.464 238.444 161.318C238.599 161.168 238.715 160.986 238.793 160.771L240.427 161.106C240.304 161.517 240.094 161.877 239.798 162.187C239.502 162.492 239.13 162.731 238.684 162.904C238.242 163.073 237.736 163.157 237.166 163.157ZM243.852 158.522V163H242.074V155.357H243.756L243.783 157.244H243.64C243.854 156.583 244.168 156.089 244.583 155.761C244.998 155.428 245.517 155.262 246.142 155.262C246.666 155.262 247.124 155.373 247.516 155.597C247.908 155.82 248.211 156.146 248.425 156.574C248.644 157.003 248.753 157.524 248.753 158.14V163H246.976V158.413C246.976 157.903 246.843 157.502 246.579 157.21C246.315 156.918 245.95 156.772 245.485 156.772C245.171 156.772 244.891 156.841 244.645 156.978C244.398 157.114 244.205 157.315 244.063 157.579C243.922 157.839 243.852 158.153 243.852 158.522ZM252.273 160.594V158.44H252.554L255.309 155.357H257.394L254.017 159.124H253.647L252.273 160.594ZM250.646 163V152.814H252.424V163H250.646ZM255.438 163L252.937 159.521L254.14 158.263L257.571 163H255.438ZM258.617 163V155.357H260.395V163H258.617ZM259.506 154.277C259.223 154.277 258.979 154.182 258.774 153.99C258.574 153.799 258.474 153.571 258.474 153.307C258.474 153.033 258.574 152.803 258.774 152.616C258.979 152.425 259.223 152.329 259.506 152.329C259.793 152.329 260.037 152.425 260.237 152.616C260.442 152.803 260.545 153.033 260.545 153.307C260.545 153.571 260.442 153.799 260.237 153.99C260.037 154.182 259.793 154.277 259.506 154.277ZM264.059 158.522V163H262.281V155.357H263.963L263.99 157.244H263.847C264.061 156.583 264.375 156.089 264.79 155.761C265.205 155.428 265.724 155.262 266.349 155.262C266.873 155.262 267.331 155.373 267.723 155.597C268.115 155.82 268.418 156.146 268.632 156.574C268.851 157.003 268.96 157.524 268.96 158.14V163H267.183V158.413C267.183 157.903 267.05 157.502 266.786 157.21C266.522 156.918 266.157 156.772 265.692 156.772C265.378 156.772 265.098 156.841 264.852 156.978C264.605 157.114 264.412 157.315 264.271 157.579C264.129 157.839 264.059 158.153 264.059 158.522ZM273.745 163.157C273.157 163.157 272.638 163.073 272.187 162.904C271.735 162.736 271.364 162.49 271.072 162.166C270.785 161.842 270.598 161.451 270.512 160.99L272.173 160.676C272.278 161.054 272.462 161.337 272.727 161.523C272.995 161.706 273.346 161.797 273.779 161.797C274.217 161.797 274.563 161.71 274.818 161.537C275.078 161.359 275.208 161.141 275.208 160.881C275.208 160.662 275.124 160.482 274.955 160.341C274.786 160.195 274.527 160.083 274.176 160.006L272.87 159.726C272.15 159.571 271.612 159.315 271.257 158.96C270.901 158.604 270.724 158.146 270.724 157.586C270.724 157.112 270.854 156.702 271.113 156.355C271.373 156.009 271.733 155.74 272.193 155.549C272.658 155.357 273.196 155.262 273.807 155.262C274.385 155.262 274.882 155.344 275.297 155.508C275.716 155.672 276.053 155.902 276.309 156.198C276.568 156.49 276.748 156.834 276.849 157.23L275.263 157.545C275.176 157.276 275.019 157.05 274.791 156.868C274.563 156.681 274.242 156.588 273.827 156.588C273.449 156.588 273.132 156.672 272.877 156.841C272.626 157.005 272.501 157.217 272.501 157.477C272.501 157.7 272.585 157.884 272.754 158.03C272.923 158.176 273.201 158.29 273.588 158.372L274.887 158.646C275.611 158.8 276.149 159.049 276.5 159.391C276.851 159.732 277.026 160.172 277.026 160.71C277.026 161.193 276.887 161.619 276.609 161.988C276.331 162.353 275.944 162.64 275.447 162.85C274.955 163.055 274.388 163.157 273.745 163.157Z" fill="#0E0F10"/>
<path d="M183.594 171.393L186.066 178.723L188.51 171.393H189.816L186.676 180H185.439L182.305 171.393H183.594ZM191.029 171.393H194.902C195.668 171.393 196.285 171.609 196.754 172.043C197.223 172.473 197.457 173.078 197.457 173.859C197.457 174.531 197.248 175.117 196.83 175.617C196.412 176.113 195.77 176.361 194.902 176.361H192.195V180H191.029V171.393ZM196.279 173.865C196.279 173.232 196.045 172.803 195.576 172.576C195.318 172.455 194.965 172.395 194.516 172.395H192.195V175.377H194.516C195.039 175.377 195.463 175.266 195.787 175.043C196.115 174.82 196.279 174.428 196.279 173.865ZM204.4 179.32C205.1 179.32 205.578 179.057 205.836 178.529C206.098 177.998 206.229 177.408 206.229 176.76C206.229 176.174 206.135 175.697 205.947 175.33C205.65 174.752 205.139 174.463 204.412 174.463C203.768 174.463 203.299 174.709 203.006 175.201C202.713 175.693 202.566 176.287 202.566 176.982C202.566 177.65 202.713 178.207 203.006 178.652C203.299 179.098 203.764 179.32 204.4 179.32ZM204.441 173.543C205.25 173.543 205.934 173.812 206.492 174.352C207.051 174.891 207.33 175.684 207.33 176.73C207.33 177.742 207.084 178.578 206.592 179.238C206.1 179.898 205.336 180.229 204.301 180.229C203.438 180.229 202.752 179.938 202.244 179.355C201.736 178.77 201.482 177.984 201.482 177C201.482 175.945 201.75 175.105 202.285 174.48C202.82 173.855 203.539 173.543 204.441 173.543ZM208.854 172.77C208.869 172.332 208.945 172.012 209.082 171.809C209.328 171.449 209.803 171.27 210.506 171.27C210.572 171.27 210.641 171.271 210.711 171.275C210.781 171.279 210.861 171.285 210.951 171.293V172.254C210.842 172.246 210.762 172.242 210.711 172.242C210.664 172.238 210.619 172.236 210.576 172.236C210.256 172.236 210.064 172.32 210.002 172.488C209.939 172.652 209.908 173.074 209.908 173.754H210.951V174.586H209.896V180H208.854V174.586H207.98V173.754H208.854V172.77ZM219.125 171.158C220.645 171.158 221.77 171.646 222.5 172.623C223.07 173.385 223.355 174.359 223.355 175.547C223.355 176.832 223.029 177.9 222.377 178.752C221.611 179.752 220.52 180.252 219.102 180.252C217.777 180.252 216.736 179.814 215.979 178.939C215.303 178.096 214.965 177.029 214.965 175.74C214.965 174.576 215.254 173.58 215.832 172.752C216.574 171.689 217.672 171.158 219.125 171.158ZM219.242 179.209C220.27 179.209 221.012 178.842 221.469 178.107C221.93 177.369 222.16 176.521 222.16 175.564C222.16 174.553 221.895 173.738 221.363 173.121C220.836 172.504 220.113 172.195 219.195 172.195C218.305 172.195 217.578 172.502 217.016 173.115C216.453 173.725 216.172 174.625 216.172 175.816C216.172 176.77 216.412 177.574 216.893 178.23C217.377 178.883 218.16 179.209 219.242 179.209ZM227.258 179.291C227.75 179.291 228.158 179.086 228.482 178.676C228.811 178.262 228.975 177.645 228.975 176.824C228.975 176.324 228.902 175.895 228.758 175.535C228.484 174.844 227.984 174.498 227.258 174.498C226.527 174.498 226.027 174.863 225.758 175.594C225.613 175.984 225.541 176.48 225.541 177.082C225.541 177.566 225.613 177.979 225.758 178.318C226.031 178.967 226.531 179.291 227.258 179.291ZM224.527 173.754H225.553V174.586C225.764 174.301 225.994 174.08 226.244 173.924C226.6 173.689 227.018 173.572 227.498 173.572C228.209 173.572 228.812 173.846 229.309 174.393C229.805 174.936 230.053 175.713 230.053 176.725C230.053 178.092 229.695 179.068 228.98 179.654C228.527 180.025 228 180.211 227.398 180.211C226.926 180.211 226.529 180.107 226.209 179.9C226.021 179.783 225.812 179.582 225.582 179.297V182.502H224.527V173.754ZM233.902 173.584C234.348 173.584 234.779 173.689 235.197 173.9C235.615 174.107 235.934 174.377 236.152 174.709C236.363 175.025 236.504 175.395 236.574 175.816C236.637 176.105 236.668 176.566 236.668 177.199H232.068C232.088 177.836 232.238 178.348 232.52 178.734C232.801 179.117 233.236 179.309 233.826 179.309C234.377 179.309 234.816 179.127 235.145 178.764C235.332 178.553 235.465 178.309 235.543 178.031H236.58C236.553 178.262 236.461 178.52 236.305 178.805C236.152 179.086 235.98 179.316 235.789 179.496C235.469 179.809 235.072 180.02 234.6 180.129C234.346 180.191 234.059 180.223 233.738 180.223C232.957 180.223 232.295 179.939 231.752 179.373C231.209 178.803 230.938 178.006 230.938 176.982C230.938 175.975 231.211 175.156 231.758 174.527C232.305 173.898 233.02 173.584 233.902 173.584ZM235.584 176.361C235.541 175.904 235.441 175.539 235.285 175.266C234.996 174.758 234.514 174.504 233.838 174.504C233.354 174.504 232.947 174.68 232.619 175.031C232.291 175.379 232.117 175.822 232.098 176.361H235.584ZM237.998 173.725H239V174.809C239.082 174.598 239.283 174.342 239.604 174.041C239.924 173.736 240.293 173.584 240.711 173.584C240.73 173.584 240.764 173.586 240.811 173.59C240.857 173.594 240.938 173.602 241.051 173.613V174.727C240.988 174.715 240.93 174.707 240.875 174.703C240.824 174.699 240.768 174.697 240.705 174.697C240.174 174.697 239.766 174.869 239.48 175.213C239.195 175.553 239.053 175.945 239.053 176.391V180H237.998V173.725ZM242.773 178.33C242.773 178.635 242.885 178.875 243.107 179.051C243.33 179.227 243.594 179.314 243.898 179.314C244.27 179.314 244.629 179.229 244.977 179.057C245.562 178.771 245.855 178.305 245.855 177.656V176.807C245.727 176.889 245.561 176.957 245.357 177.012C245.154 177.066 244.955 177.105 244.76 177.129L244.121 177.211C243.738 177.262 243.451 177.342 243.26 177.451C242.936 177.635 242.773 177.928 242.773 178.33ZM245.328 176.197C245.57 176.166 245.732 176.064 245.814 175.893C245.861 175.799 245.885 175.664 245.885 175.488C245.885 175.129 245.756 174.869 245.498 174.709C245.244 174.545 244.879 174.463 244.402 174.463C243.852 174.463 243.461 174.611 243.23 174.908C243.102 175.072 243.018 175.316 242.979 175.641H241.994C242.014 174.867 242.264 174.33 242.744 174.029C243.229 173.725 243.789 173.572 244.426 173.572C245.164 173.572 245.764 173.713 246.225 173.994C246.682 174.275 246.91 174.713 246.91 175.307V178.922C246.91 179.031 246.932 179.119 246.975 179.186C247.021 179.252 247.117 179.285 247.262 179.285C247.309 179.285 247.361 179.283 247.42 179.279C247.479 179.271 247.541 179.262 247.607 179.25V180.029C247.443 180.076 247.318 180.105 247.232 180.117C247.146 180.129 247.029 180.135 246.881 180.135C246.518 180.135 246.254 180.006 246.09 179.748C246.004 179.611 245.943 179.418 245.908 179.168C245.693 179.449 245.385 179.693 244.982 179.9C244.58 180.107 244.137 180.211 243.652 180.211C243.07 180.211 242.594 180.035 242.223 179.684C241.855 179.328 241.672 178.885 241.672 178.354C241.672 177.771 241.854 177.32 242.217 177C242.58 176.68 243.057 176.482 243.646 176.408L245.328 176.197ZM248.855 171.973H249.922V173.725H250.924V174.586H249.922V178.682C249.922 178.9 249.996 179.047 250.145 179.121C250.227 179.164 250.363 179.186 250.555 179.186C250.605 179.186 250.66 179.186 250.719 179.186C250.777 179.182 250.846 179.176 250.924 179.168V180C250.803 180.035 250.676 180.061 250.543 180.076C250.414 180.092 250.273 180.1 250.121 180.1C249.629 180.1 249.295 179.975 249.119 179.725C248.943 179.471 248.855 179.143 248.855 178.74V174.586H248.006V173.725H248.855V171.973ZM251.984 173.754H253.057V180H251.984V173.754ZM251.984 171.393H253.057V172.588H251.984V171.393ZM257.146 179.32C257.846 179.32 258.324 179.057 258.582 178.529C258.844 177.998 258.975 177.408 258.975 176.76C258.975 176.174 258.881 175.697 258.693 175.33C258.396 174.752 257.885 174.463 257.158 174.463C256.514 174.463 256.045 174.709 255.752 175.201C255.459 175.693 255.312 176.287 255.312 176.982C255.312 177.65 255.459 178.207 255.752 178.652C256.045 179.098 256.51 179.32 257.146 179.32ZM257.188 173.543C257.996 173.543 258.68 173.812 259.238 174.352C259.797 174.891 260.076 175.684 260.076 176.73C260.076 177.742 259.83 178.578 259.338 179.238C258.846 179.898 258.082 180.229 257.047 180.229C256.184 180.229 255.498 179.938 254.99 179.355C254.482 178.77 254.229 177.984 254.229 177C254.229 175.945 254.496 175.105 255.031 174.48C255.566 173.855 256.285 173.543 257.188 173.543ZM261.336 173.725H262.338V174.615C262.635 174.248 262.949 173.984 263.281 173.824C263.613 173.664 263.982 173.584 264.389 173.584C265.279 173.584 265.881 173.895 266.193 174.516C266.365 174.855 266.451 175.342 266.451 175.975V180H265.379V176.045C265.379 175.662 265.322 175.354 265.209 175.119C265.021 174.729 264.682 174.533 264.189 174.533C263.939 174.533 263.734 174.559 263.574 174.609C263.285 174.695 263.031 174.867 262.812 175.125C262.637 175.332 262.521 175.547 262.467 175.77C262.416 175.988 262.391 176.303 262.391 176.713V180H261.336V173.725ZM268.643 178.031C268.674 178.383 268.762 178.652 268.906 178.84C269.172 179.18 269.633 179.35 270.289 179.35C270.68 179.35 271.023 179.266 271.32 179.098C271.617 178.926 271.766 178.662 271.766 178.307C271.766 178.037 271.646 177.832 271.408 177.691C271.256 177.605 270.955 177.506 270.506 177.393L269.668 177.182C269.133 177.049 268.738 176.9 268.484 176.736C268.031 176.451 267.805 176.057 267.805 175.553C267.805 174.959 268.018 174.479 268.443 174.111C268.873 173.744 269.449 173.561 270.172 173.561C271.117 173.561 271.799 173.838 272.217 174.393C272.479 174.744 272.605 175.123 272.598 175.529H271.602C271.582 175.291 271.498 175.074 271.35 174.879C271.107 174.602 270.688 174.463 270.09 174.463C269.691 174.463 269.389 174.539 269.182 174.691C268.979 174.844 268.877 175.045 268.877 175.295C268.877 175.568 269.012 175.787 269.281 175.951C269.438 176.049 269.668 176.135 269.973 176.209L270.67 176.379C271.428 176.562 271.936 176.74 272.193 176.912C272.604 177.182 272.809 177.605 272.809 178.184C272.809 178.742 272.596 179.225 272.17 179.631C271.748 180.037 271.104 180.24 270.236 180.24C269.303 180.24 268.641 180.029 268.25 179.607C267.863 179.182 267.656 178.656 267.629 178.031H268.643Z" fill="#0E0F10"/>
</g>
<g opacity="0.7" filter="url(#filter5_dd_5229_48201)">
<path d="M537.545 93.6513C536.692 87.0791 541.328 81.0595 547.9 80.2061L667.403 64.6903C673.975 63.837 679.994 68.4731 680.848 75.0453L683.68 96.8622C684.534 103.434 679.898 109.454 673.325 110.307L553.823 125.823C547.251 126.677 541.231 122.04 540.378 115.468L537.545 93.6513Z" fill="white" shape-rendering="crispEdges"/>
<rect x="548.93" y="88.1395" width="30" height="30" rx="15" transform="rotate(-7.39773 548.93 88.1395)" fill="url(#paint17_linear_5229_48201)"/>
<rect x="548.93" y="88.1395" width="30" height="30" rx="15" transform="rotate(-7.39773 548.93 88.1395)" fill="url(#paint18_radial_5229_48201)" fill-opacity="0.2"/>
<path d="M550.862 103.015C549.795 94.7994 555.59 87.2748 563.805 86.2082V86.2082C572.021 85.1415 579.545 90.9367 580.612 99.152V99.152C581.678 107.367 575.883 114.892 567.668 115.958V115.958C559.453 117.025 551.928 111.23 550.862 103.015V103.015Z" fill="url(#paint19_linear_5229_48201)"/>
<path d="M550.862 103.015C549.795 94.7994 555.59 87.2748 563.805 86.2082V86.2082C572.021 85.1415 579.545 90.9367 580.612 99.152V99.152C581.678 107.367 575.883 114.892 567.668 115.958V115.958C559.453 117.025 551.928 111.23 550.862 103.015V103.015Z" fill="url(#paint20_radial_5229_48201)" fill-opacity="0.2"/>
<path fill-rule="evenodd" clip-rule="evenodd" d="M560.806 99.7664C560.519 99.9592 560.131 99.8834 559.938 99.5971C559.745 99.3109 559.821 98.9225 560.107 98.7296L564.744 95.6066C564.907 95.4967 565.113 95.4701 565.298 95.5347L570.579 97.3701C570.905 97.4834 571.077 97.8396 570.964 98.1656C570.85 98.4917 570.494 98.6641 570.168 98.5508L565.183 96.818L560.806 99.7664ZM564.925 98.1413C565.173 97.9716 565.487 97.9308 565.77 98.0317L569.405 99.3276C569.737 99.446 569.974 99.7405 570.019 100.09L570.558 104.239C570.691 105.266 569.967 106.206 568.94 106.34L568.407 106.409C568.017 106.459 567.66 106.184 567.609 105.794L567.379 104.021C567.29 103.337 566.663 102.854 565.978 102.943C565.294 103.031 564.811 103.659 564.9 104.343L565.13 106.116C565.18 106.506 564.905 106.863 564.515 106.914L563.982 106.983C562.955 107.117 562.014 106.392 561.881 105.365L561.342 101.217C561.297 100.867 561.451 100.522 561.742 100.322L564.925 98.1413Z" fill="#15823D"/>
<path d="M588.545 98.122C588.19 95.3835 590.121 92.8753 592.86 92.5198L664.762 83.1842C667.5 82.8287 670.008 84.7604 670.364 87.4988V87.4988C670.72 90.2373 668.788 92.7455 666.049 93.101L594.147 102.437C591.409 102.792 588.901 100.86 588.545 98.122V98.122Z" fill="url(#paint21_linear_5229_48201)"/>
</g>
<g opacity="0.7" filter="url(#filter6_dd_5229_48201)">
<path d="M44.4115 32.6028C45.5745 26.0783 51.8065 21.7319 58.3311 22.8949L176.967 44.0419C183.491 45.2049 187.838 51.4369 186.675 57.9615L182.814 79.6201C181.651 86.1446 175.419 90.491 168.894 89.328L50.2588 68.1811C43.7342 67.018 39.3878 60.786 40.5508 54.2615L44.4115 32.6028Z" fill="white" shape-rendering="crispEdges"/>
<rect x="56.9272" y="30.7708" width="30" height="30" rx="15" transform="rotate(10.1069 56.9272 30.7708)" fill="url(#paint22_linear_5229_48201)"/>
<rect x="56.9272" y="30.7708" width="30" height="30" rx="15" transform="rotate(10.1069 56.9272 30.7708)" fill="url(#paint23_radial_5229_48201)" fill-opacity="0.2"/>
<path d="M54.295 45.538C55.7487 37.3823 63.5388 31.9493 71.6945 33.403V33.403C79.8502 34.8568 85.2832 42.6468 83.8294 50.8025V50.8025C82.3757 58.9583 74.5856 64.3913 66.4299 62.9375V62.9375C58.2742 61.4837 52.8412 53.6937 54.295 45.538V45.538Z" fill="url(#paint24_linear_5229_48201)"/>
<path d="M54.295 45.538C55.7487 37.3823 63.5388 31.9493 71.6945 33.403V33.403C79.8502 34.8568 85.2832 42.6468 83.8294 50.8025V50.8025C82.3757 58.9583 74.5856 64.3913 66.4299 62.9375V62.9375C58.2742 61.4837 52.8412 53.6937 54.295 45.538V45.538Z" fill="url(#paint25_radial_5229_48201)" fill-opacity="0.2"/>
<g clip-path="url(#clip2_5229_48201)">
<path fill-rule="evenodd" clip-rule="evenodd" d="M63.634 46.5679C64.1792 43.5095 67.1004 41.4721 70.1588 42.0173C73.2172 42.5624 75.2546 45.4837 74.7094 48.5421C74.3775 50.4042 72.9826 51.7842 71.5013 52.6675L69.0566 54.1252C68.3785 54.5296 67.5062 54.3741 67.0095 53.7603L65.2191 51.5477C64.1342 50.207 63.3021 48.43 63.634 46.5679ZM68.9523 48.7856C69.632 48.9067 70.2812 48.454 70.4023 47.7743C70.5235 47.0947 70.0707 46.4455 69.3911 46.3244C68.7114 46.2032 68.0622 46.656 67.9411 47.3356C67.82 48.0153 68.2727 48.6644 68.9523 48.7856Z" fill="#FF7626"/>
</g>
<path d="M91.7053 52.2065C92.1899 49.4879 94.7866 47.6769 97.5052 48.1615L168.886 60.8852C171.604 61.3697 173.415 63.9664 172.931 66.685V66.685C172.446 69.4036 169.849 71.2146 167.131 70.73L95.7503 58.0063C93.0317 57.5217 91.2207 54.925 91.7053 52.2065V52.2065Z" fill="url(#paint26_linear_5229_48201)"/>
</g>
<defs>
<filter id="filter0_f_5229_48201" x="58.2422" y="200.671" width="192.235" height="82.7338" filterUnits="userSpaceOnUse" color-interpolation-filters="sRGB">
<feFlood flood-opacity="0" result="BackgroundImageFix"/>
<feBlend mode="normal" in="SourceGraphic" in2="BackgroundImageFix" result="shape"/>
<feGaussianBlur stdDeviation="1" result="effect1_foregroundBlur_5229_48201"/>
</filter>
<filter id="filter1_dd_5229_48201" x="204" y="53" width="332" height="224" filterUnits="userSpaceOnUse" color-interpolation-filters="sRGB">
<feFlood flood-opacity="0" result="BackgroundImageFix"/>
<feColorMatrix in="SourceAlpha" type="matrix" values="0 0 0 0 0 0 0 0 0 0 0 0 0 0 0 0 0 0 127 0" result="hardAlpha"/>
<feOffset/>
<feGaussianBlur stdDeviation="1"/>
<feComposite in2="hardAlpha" operator="out"/>
<feColorMatrix type="matrix" values="0 0 0 0 0.2 0 0 0 0 0.572549 0 0 0 0 1 0 0 0 0.12 0"/>
<feBlend mode="normal" in2="BackgroundImageFix" result="effect1_dropShadow_5229_48201"/>
<feColorMatrix in="SourceAlpha" type="matrix" values="0 0 0 0 0 0 0 0 0 0 0 0 0 0 0 0 0 0 127 0" result="hardAlpha"/>
<feOffset dy="8"/>
<feGaussianBlur stdDeviation="8"/>
<feComposite in2="hardAlpha" operator="out"/>
<feColorMatrix type="matrix" values="0 0 0 0 0.2 0 0 0 0 0.572549 0 0 0 0 1 0 0 0 0.12 0"/>
<feBlend mode="normal" in2="effect1_dropShadow_5229_48201" result="effect2_dropShadow_5229_48201"/>
<feBlend mode="normal" in="SourceGraphic" in2="effect2_dropShadow_5229_48201" result="shape"/>
</filter>
<clipPath id="bgblur_0_5229_48201_clip_path" transform="translate(-218 -59)"><path d="M220 66.3976C220 63.4166 222.417 61 225.398 61H514.602C517.583 61 520 63.4166 520 66.3976V75H220V66.3976Z"/>
</clipPath><filter id="filter3_dd_5229_48201" x="368" y="190" width="272" height="93.2024" filterUnits="userSpaceOnUse" color-interpolation-filters="sRGB">
<feFlood flood-opacity="0" result="BackgroundImageFix"/>
<feColorMatrix in="SourceAlpha" type="matrix" values="0 0 0 0 0 0 0 0 0 0 0 0 0 0 0 0 0 0 127 0" result="hardAlpha"/>
<feOffset/>
<feGaussianBlur stdDeviation="1"/>
<feComposite in2="hardAlpha" operator="out"/>
<feColorMatrix type="matrix" values="0 0 0 0 0.2 0 0 0 0 0.572549 0 0 0 0 1 0 0 0 0.12 0"/>
<feBlend mode="normal" in2="BackgroundImageFix" result="effect1_dropShadow_5229_48201"/>
<feColorMatrix in="SourceAlpha" type="matrix" values="0 0 0 0 0 0 0 0 0 0 0 0 0 0 0 0 0 0 127 0" result="hardAlpha"/>
<feOffset dy="8"/>
<feGaussianBlur stdDeviation="8"/>
<feComposite in2="hardAlpha" operator="out"/>
<feColorMatrix type="matrix" values="0 0 0 0 0.2 0 0 0 0 0.572549 0 0 0 0 1 0 0 0 0.12 0"/>
<feBlend mode="normal" in2="effect1_dropShadow_5229_48201" result="effect2_dropShadow_5229_48201"/>
<feBlend mode="normal" in="SourceGraphic" in2="effect2_dropShadow_5229_48201" result="shape"/>
</filter>
<filter id="filter4_dd_5229_48201" x="109" y="127.5" width="272" height="93" filterUnits="userSpaceOnUse" color-interpolation-filters="sRGB">
<feFlood flood-opacity="0" result="BackgroundImageFix"/>
<feColorMatrix in="SourceAlpha" type="matrix" values="0 0 0 0 0 0 0 0 0 0 0 0 0 0 0 0 0 0 127 0" result="hardAlpha"/>
<feOffset/>
<feGaussianBlur stdDeviation="1"/>
<feComposite in2="hardAlpha" operator="out"/>
<feColorMatrix type="matrix" values="0 0 0 0 0.2 0 0 0 0 0.572549 0 0 0 0 1 0 0 0 0.12 0"/>
<feBlend mode="normal" in2="BackgroundImageFix" result="effect1_dropShadow_5229_48201"/>
<feColorMatrix in="SourceAlpha" type="matrix" values="0 0 0 0 0 0 0 0 0 0 0 0 0 0 0 0 0 0 127 0" result="hardAlpha"/>
<feOffset dy="8"/>
<feGaussianBlur stdDeviation="8"/>
<feComposite in2="hardAlpha" operator="out"/>
<feColorMatrix type="matrix" values="0 0 0 0 0.2 0 0 0 0 0.572549 0 0 0 0 1 0 0 0 0.12 0"/>
<feBlend mode="normal" in2="effect1_dropShadow_5229_48201" result="effect2_dropShadow_5229_48201"/>
<feBlend mode="normal" in="SourceGraphic" in2="effect2_dropShadow_5229_48201" result="shape"/>
</filter>
<filter id="filter5_dd_5229_48201" x="520" y="55.1453" width="181.226" height="96.223" filterUnits="userSpaceOnUse" color-interpolation-filters="sRGB">
<feFlood flood-opacity="0" result="BackgroundImageFix"/>
<feColorMatrix in="SourceAlpha" type="matrix" values="0 0 0 0 0 0 0 0 0 0 0 0 0 0 0 0 0 0 127 0" result="hardAlpha"/>
<feOffset/>
<feGaussianBlur stdDeviation="1"/>
<feComposite in2="hardAlpha" operator="out"/>
<feColorMatrix type="matrix" values="0 0 0 0 0.2 0 0 0 0 0.572549 0 0 0 0 1 0 0 0 0.12 0"/>
<feBlend mode="normal" in2="BackgroundImageFix" result="effect1_dropShadow_5229_48201"/>
<feColorMatrix in="SourceAlpha" type="matrix" values="0 0 0 0 0 0 0 0 0 0 0 0 0 0 0 0 0 0 127 0" result="hardAlpha"/>
<feOffset dy="8"/>
<feGaussianBlur stdDeviation="8"/>
<feComposite in2="hardAlpha" operator="out"/>
<feColorMatrix type="matrix" values="0 0 0 0 0.2 0 0 0 0 0.572549 0 0 0 0 1 0 0 0 0.12 0"/>
<feBlend mode="normal" in2="effect1_dropShadow_5229_48201" result="effect2_dropShadow_5229_48201"/>
<feBlend mode="normal" in="SourceGraphic" in2="effect2_dropShadow_5229_48201" result="shape"/>
</filter>
<filter id="filter6_dd_5229_48201" x="22.4451" y="12.7891" width="182.335" height="102.645" filterUnits="userSpaceOnUse" color-interpolation-filters="sRGB">
<feFlood flood-opacity="0" result="BackgroundImageFix"/>
<feColorMatrix in="SourceAlpha" type="matrix" values="0 0 0 0 0 0 0 0 0 0 0 0 0 0 0 0 0 0 127 0" result="hardAlpha"/>
<feOffset/>
<feGaussianBlur stdDeviation="1"/>
<feComposite in2="hardAlpha" operator="out"/>
<feColorMatrix type="matrix" values="0 0 0 0 0.2 0 0 0 0 0.572549 0 0 0 0 1 0 0 0 0.12 0"/>
<feBlend mode="normal" in2="BackgroundImageFix" result="effect1_dropShadow_5229_48201"/>
<feColorMatrix in="SourceAlpha" type="matrix" values="0 0 0 0 0 0 0 0 0 0 0 0 0 0 0 0 0 0 127 0" result="hardAlpha"/>
<feOffset dy="8"/>
<feGaussianBlur stdDeviation="8"/>
<feComposite in2="hardAlpha" operator="out"/>
<feColorMatrix type="matrix" values="0 0 0 0 0.2 0 0 0 0 0.572549 0 0 0 0 1 0 0 0 0.12 0"/>
<feBlend mode="normal" in2="effect1_dropShadow_5229_48201" result="effect2_dropShadow_5229_48201"/>
<feBlend mode="normal" in="SourceGraphic" in2="effect2_dropShadow_5229_48201" result="shape"/>
</filter>
<linearGradient id="paint0_linear_5229_48201" x1="91.9542" y1="231.269" x2="91.9542" y2="268.471" gradientUnits="userSpaceOnUse">
<stop stop-color="#EDF5FF"/>
<stop offset="1" stop-color="#F9F2FF"/>
</linearGradient>
<radialGradient id="paint1_radial_5229_48201" cx="0" cy="0" r="1" gradientTransform="matrix(-1.10872e-06 -38.3297 21.2355 -13.3088 73.353 268.471)" gradientUnits="userSpaceOnUse">
<stop stop-color="#A4A8FD"/>
<stop offset="0.497418" stop-color="#A9AAFE" stop-opacity="0"/>
<stop offset="1" stop-color="#ADADFF" stop-opacity="0"/>
</radialGradient>
<linearGradient id="paint2_linear_5229_48201" x1="92.2629" y1="229.42" x2="95.883" y2="266.446" gradientUnits="userSpaceOnUse">
<stop stop-color="#D6E9FF"/>
<stop offset="1" stop-color="#D6E9FF" stop-opacity="0"/>
</linearGradient>
<radialGradient id="paint3_radial_5229_48201" cx="0" cy="0" r="1" gradientTransform="matrix(-3.72978 -38.1478 19.8397 -15.312 77.3701 268.256)" gradientUnits="userSpaceOnUse">
<stop stop-color="#D6E9FF"/>
<stop offset="0.497418" stop-color="#D6E9FF" stop-opacity="0.5"/>
<stop offset="1" stop-color="#D6E9FF" stop-opacity="0"/>
</radialGradient>
<linearGradient id="paint4_linear_5229_48201" x1="120.814" y1="253.553" x2="234.354" y2="242.453" gradientUnits="userSpaceOnUse">
<stop stop-color="#EFF1F2"/>
<stop offset="1" stop-color="#F7F8F8"/>
</linearGradient>
<linearGradient id="paint5_linear_5229_48201" x1="236" y1="88.0004" x2="504" y2="88.003" gradientUnits="userSpaceOnUse">
<stop stop-color="#EDF5FF"/>
<stop offset="1" stop-color="#EFF1F2"/>
</linearGradient>
<linearGradient id="paint6_linear_5229_48201" x1="236" y1="114.001" x2="504" y2="114.004" gradientUnits="userSpaceOnUse">
<stop stop-color="#EDF5FF"/>
<stop offset="1" stop-color="#EFF1F2"/>
</linearGradient>
<linearGradient id="paint7_linear_5229_48201" x1="236" y1="140.001" x2="504" y2="140.004" gradientUnits="userSpaceOnUse">
<stop stop-color="#EDF5FF"/>
<stop offset="1" stop-color="#EFF1F2"/>
</linearGradient>
<linearGradient id="paint8_linear_5229_48201" x1="236" y1="166.001" x2="504" y2="166.004" gradientUnits="userSpaceOnUse">
<stop stop-color="#EDF5FF"/>
<stop offset="1" stop-color="#EFF1F2"/>
</linearGradient>
<linearGradient id="paint9_linear_5229_48201" x1="236" y1="192.001" x2="504" y2="192.004" gradientUnits="userSpaceOnUse">
<stop stop-color="#EDF5FF"/>
<stop offset="1" stop-color="#EFF1F2"/>
</linearGradient>
<linearGradient id="paint10_linear_5229_48201" x1="141.964" y1="0.141835" x2="142.431" y2="19.0017" gradientUnits="userSpaceOnUse">
<stop stop-color="white"/>
<stop offset="1" stop-color="white" stop-opacity="0"/>
</linearGradient>
<linearGradient id="paint11_linear_5229_48201" x1="414.601" y1="210" x2="414.601" y2="247.202" gradientUnits="userSpaceOnUse">
<stop stop-color="#EDF5FF"/>
<stop offset="1" stop-color="#F9F2FF"/>
</linearGradient>
<radialGradient id="paint12_radial_5229_48201" cx="0" cy="0" r="1" gradientTransform="matrix(-1.10872e-06 -38.3297 21.2355 -13.3088 396 247.202)" gradientUnits="userSpaceOnUse">
<stop stop-color="#A4A8FD"/>
<stop offset="0.497418" stop-color="#A9AAFE" stop-opacity="0"/>
<stop offset="1" stop-color="#ADADFF" stop-opacity="0"/>
</radialGradient>
<linearGradient id="paint13_linear_5229_48201" x1="415" y1="210" x2="415" y2="247.202" gradientUnits="userSpaceOnUse">
<stop stop-color="#EDF5FF"/>
<stop offset="1" stop-color="#EDF5FF"/>
</linearGradient>
<radialGradient id="paint14_radial_5229_48201" cx="0" cy="0" r="1" gradientTransform="matrix(-1.10872e-06 -38.3297 21.2355 -13.3088 396.399 247.202)" gradientUnits="userSpaceOnUse">
<stop stop-color="#85BEFF"/>
<stop offset="0.497418" stop-color="#D6E9FF"/>
<stop offset="1" stop-color="#EDF5FF"/>
</radialGradient>
<linearGradient id="paint15_linear_5229_48201" x1="155.5" y1="147.5" x2="155.5" y2="184.5" gradientUnits="userSpaceOnUse">
<stop stop-color="#EDF5FF"/>
<stop offset="1" stop-color="#F9F2FF"/>
</linearGradient>
<radialGradient id="paint16_radial_5229_48201" cx="0" cy="0" r="1" gradientTransform="matrix(-1.10269e-06 -38.1212 21.12 -13.2364 137 184.5)" gradientUnits="userSpaceOnUse">
<stop stop-color="#A4A8FD"/>
<stop offset="0.497418" stop-color="#A9AAFE" stop-opacity="0"/>
<stop offset="1" stop-color="#ADADFF" stop-opacity="0"/>
</radialGradient>
<linearGradient id="paint17_linear_5229_48201" x1="563.93" y1="88.1395" x2="563.93" y2="118.14" gradientUnits="userSpaceOnUse">
<stop stop-color="#EDF5FF"/>
<stop offset="1" stop-color="#F9F2FF"/>
</linearGradient>
<radialGradient id="paint18_radial_5229_48201" cx="0" cy="0" r="1" gradientTransform="matrix(-8.9407e-07 -30.9091 17.1243 -10.7322 548.93 118.14)" gradientUnits="userSpaceOnUse">
<stop stop-color="#A4A8FD"/>
<stop offset="0.497418" stop-color="#A9AAFE" stop-opacity="0"/>
<stop offset="1" stop-color="#ADADFF" stop-opacity="0"/>
</radialGradient>
<linearGradient id="paint19_linear_5229_48201" x1="563.805" y1="86.2082" x2="567.668" y2="115.958" gradientUnits="userSpaceOnUse">
<stop stop-color="#FFFBEF"/>
<stop offset="1" stop-color="#EDFFF3"/>
</linearGradient>
<radialGradient id="paint20_radial_5229_48201" cx="0" cy="0" r="1" gradientTransform="matrix(-3.97974 -30.6518 15.5999 -12.8477 552.793 117.89)" gradientUnits="userSpaceOnUse">
<stop stop-color="#D5F9E2"/>
<stop offset="0.497418" stop-color="#ABF3C5" stop-opacity="0.5"/>
<stop offset="1" stop-color="#D5F9E2" stop-opacity="0"/>
</radialGradient>
<linearGradient id="paint21_linear_5229_48201" x1="588.474" y1="98.3292" x2="670.389" y2="87.694" gradientUnits="userSpaceOnUse">
<stop stop-color="#EFF1F2"/>
<stop offset="1" stop-color="#F7F8F8"/>
</linearGradient>
<linearGradient id="paint22_linear_5229_48201" x1="71.9272" y1="30.7708" x2="71.9272" y2="60.7708" gradientUnits="userSpaceOnUse">
<stop stop-color="#EDF5FF"/>
<stop offset="1" stop-color="#F9F2FF"/>
</linearGradient>
<radialGradient id="paint23_radial_5229_48201" cx="0" cy="0" r="1" gradientTransform="matrix(-8.9407e-07 -30.9091 17.1243 -10.7322 56.9272 60.7708)" gradientUnits="userSpaceOnUse">
<stop stop-color="#FFE4D4"/>
<stop offset="0.497418" stop-color="#FFE4D4" stop-opacity="0"/>
<stop offset="1" stop-color="#FFE4D4" stop-opacity="0"/>
</radialGradient>
<linearGradient id="paint24_linear_5229_48201" x1="71.6945" y1="33.403" x2="66.4299" y2="62.9375" gradientUnits="userSpaceOnUse">
<stop stop-color="#FFFBEF"/>
<stop offset="1" stop-color="#FFE4D4" stop-opacity="0.5"/>
</linearGradient>
<radialGradient id="paint25_radial_5229_48201" cx="0" cy="0" r="1" gradientTransform="matrix(5.42409 -30.4294 18.7419 -7.56057 51.6627 60.3052)" gradientUnits="userSpaceOnUse">
<stop stop-color="#FFE4D4"/>
<stop offset="0.497418" stop-color="#FFE4D4" stop-opacity="0.5"/>
<stop offset="1" stop-color="#FFE4D4" stop-opacity="0"/>
</radialGradient>
<linearGradient id="paint26_linear_5229_48201" x1="91.5748" y1="52.3826" x2="172.896" y2="66.8787" gradientUnits="userSpaceOnUse">
<stop stop-color="#EFF1F2"/>
<stop offset="1" stop-color="#F7F8F8"/>
</linearGradient>
<clipPath id="clip1_5229_48201">
<rect x="137" y="147.5" width="37" height="37" rx="18.5" fill="white"/>
</clipPath>
<clipPath id="clip2_5229_48201">
<rect width="15" height="15" fill="white" transform="translate(62.9946 39.4705) rotate(10.1069)"/>
</clipPath>
</defs>
</svg>
